<svg width="224" height="44" viewBox="0 0 224 44" fill="none" xmlns="http://www.w3.org/2000/svg">
<path d="M224 1.52973H215.188V42.5333H224V1.52973ZM188.814 30.4187L177.997 1.46667H168.637V42.4688H177.449V31.3735L177.025 24.2953L184.317 42.5979H193.371L200.603 24.2953L200.239 31.3735V42.4703H209.05V1.46667H199.692L188.814 30.4187ZM146.699 0C142.811 0 137.402 1.1484 133.573 6.56773C131.933 8.86307 131.081 11.6703 131.081 14.9864V29.1427C131.081 33.7333 133.027 38.0057 136.308 40.5563C139.407 42.8516 143.053 44.0645 146.699 44.0645C150.345 44.0645 154.053 42.7885 157.153 40.5563C160.434 38.0057 162.379 33.7333 162.379 29.1427V14.9219C162.44 3.95413 153.02 0 146.699 0ZM153.506 27.6115C153.506 32.0115 150.711 35.0724 146.76 35.0724C142.811 35.0724 140.015 32.0115 140.015 27.6115V16.3885C140.015 11.9885 142.75 8.9276 146.699 8.9276C150.65 8.9276 153.506 12.0516 153.506 16.3885V27.6115ZM99.4809 26.0817C103.007 23.7849 105.194 19.0021 105.194 14.6667C105.194 7.7792 99.8459 1.46667 93.2213 1.46667H73.7154V42.5979H82.526V27.9312H90.2443L90.3052 28.0573L96.2605 42.5979H105.923L99.1767 26.3355L99.4809 26.0817ZM93.2213 18.7484H82.526V10.7125H93.2213C94.9235 10.7125 96.3822 12.8817 96.3822 14.6667C96.3822 16.5147 94.9843 18.7484 93.2213 18.7484ZM51.838 0C47.9484 0 42.5393 1.1484 38.7105 6.56773C37.0706 8.86307 36.2189 11.6703 36.2189 14.9864V29.1427C36.2189 33.7333 38.1643 38.0057 41.4455 40.5563C44.5087 42.8344 48.1578 44.0591 51.8989 44.0645C55.5437 44.0645 59.2508 42.7885 62.3508 40.5563C65.632 38.0057 67.5775 33.7333 67.5775 29.1427V14.9219C67.5775 3.95413 58.157 0 51.8366 0H51.838ZM58.5829 27.6115C58.5829 32.0115 55.7871 35.0724 51.8366 35.0724C47.8876 35.0724 45.0918 32.0115 45.0918 27.6115V16.3885C45.0918 11.9885 47.8268 8.9276 51.7772 8.9276C55.7262 8.9276 58.5829 12.0516 58.5829 16.3885V27.6115ZM27.4677 21.8093C27.4677 21.8093 31.1747 18.9391 31.1747 13.9656C31.1747 6.95053 25.7061 1.21147 19.0206 1.21147H0V42.7885H19.4465C26.1306 42.7885 31.6006 37.1125 31.6006 30.0989C31.5398 24.9333 27.4677 21.8093 27.4677 21.8093ZM8.93373 10.648H19.0206C20.7228 10.648 22.1815 12.1792 22.1815 13.9656C22.1815 15.8136 20.7836 17.3448 19.0206 17.3448H8.93373V10.648ZM19.4465 33.4151H8.93373V26.7183H19.3248C21.1486 26.7183 22.606 28.2495 22.606 30.0989C22.606 31.8839 21.1486 33.4136 19.4465 33.4136V33.4151ZM116.133 30.2265C116.133 33.4781 115.281 34.7541 112.183 34.7541C111.028 34.7541 110.056 34.6896 109.265 34.6265V43.0437C110.602 43.2989 112 43.4251 113.095 43.4251C121.055 43.4251 124.883 39.6 124.883 31.3104V1.52973H116.072V30.228H116.133V30.2265Z" fill="#1A1A1A"/>
</svg>
