<svg width="239" height="124" viewBox="0 0 239 124" fill="none" xmlns="http://www.w3.org/2000/svg">
<g clip-path="url(#clip0_801_4983)">
<path d="M91.779 75.0229C82.8858 69.4148 70.8166 68.4307 51.3524 73.7171C30.6021 78.4905 23.6837 81.5504 14.5978 75.4078C11.1072 72.3902 9.85572 67.5317 10.7902 60.5333C12.9576 49.1247 18.8149 38.1458 29.2192 25.9674C35.0263 19.6323 40.4134 14.1956 47.5263 12.0125C52.9779 10.6429 52.4682 14.837 51.8086 15.4368C51.1125 15.4368 49.9432 15.5441 49.0395 16.1214C48.306 16.6783 46.2928 18.4763 46.1846 20.8948C46.0287 24.5973 49.9426 23.8267 51.6308 21.7938C53.4505 19.5031 56.1399 15.1163 54.0244 11.0278C53.1377 9.57254 51.6057 8.56679 49.7036 8.22433C43.1902 7.85993 37.1244 10.8994 31.5259 14.2597C19.2825 22.5855 9.48856 34.1222 3.94675 46.7503C0.751913 54.3696 -2.1376 65.2839 2.19338 74.1672C5.54416 80.3309 12.5 83.6049 20.7989 82.9203C26.6195 82.3216 33.6577 80.4801 38.3914 79.3682C43.1254 78.2542 67.3564 70.1006 75.3181 84.2919C75.3181 84.2919 77.9656 79.2608 84.5821 79.1535C90.0217 78.6622 97.8693 80.695 103.584 84.8037C101.68 82.0008 96.282 77.8699 91.779 75.0229Z" fill="#E61A27"/>
<path d="M53.8231 27.4013C49.291 24.4905 40.1821 30.0553 32.8864 39.6007C26.2147 48.1628 23.3338 58.1141 26.4692 62.7159C31.1327 68.1306 39.7908 60.2546 43.4726 56.0389L43.9476 55.5461C46.4514 52.9134 48.3855 49.7456 50.2581 46.7058C50.2581 46.7058 51.9789 43.9235 52.061 43.7948C53.1246 43.6029 54.4056 43.3032 55.8492 42.8964C55.8286 42.9601 50.3262 52.0139 50.8875 56.5077C51.0623 57.8787 50.9291 62.887 55.9239 64.4063C62.5812 65.4986 67.8972 60.4467 72.587 55.952C72.587 55.952 73.3861 55.2037 73.8381 54.7764C73.7237 55.2244 73.5746 55.8225 73.5746 55.8225C71.6256 62.4576 74.2528 63.85 75.8962 64.3636C80.8629 65.7773 86.7964 58.7137 86.8158 58.7137C86.6617 60.9386 86.212 62.7791 88.608 64.2562C90.8693 65.0488 93.158 63.8404 94.8979 62.7059C101.164 58.3829 106.212 51.6161 110.29 45.7674H107.689C107.658 45.7674 101.271 54.8299 97.1236 56.7996C97.117 56.7996 96.3621 57.1789 95.9274 56.8788C95.3887 56.4293 95.6012 55.4943 95.9337 54.8322C95.9546 54.7892 111.948 27.6353 111.948 27.6353H104.397C104.397 27.6353 103.572 28.9417 103.505 29.0274C103.454 28.9847 103.333 28.7601 103.249 28.6524C98.5707 22.3173 87.9762 32.0619 79.9998 43.3622C76.929 47.7075 73.0192 52.5999 68.9652 56.1313C68.9652 56.1313 62.9591 61.5206 60.3932 57.6486C59.4551 56.0216 59.7437 53.6431 60.2728 52.0811C63.2606 43.755 68.4089 36.1989 74.2677 31.6398C75.9213 30.3779 77.7192 30.0129 78.6109 30.5481C79.4612 31.0412 79.5983 32.2601 79.0606 33.0951C77.6962 33.0524 76.6028 33.4583 75.7143 34.3573C73.9636 36.1553 73.3553 37.8893 73.9119 39.5162C76.6159 43.283 82.0086 35.8345 81.7478 31.2971C81.6546 29.6702 80.7682 28.1295 79.4448 27.3797C77.4727 26.2245 74.4643 26.5237 72.5173 27.4446C69.9108 28.4074 65.7853 31.7674 63.3771 34.379C60.3454 37.6541 55.1456 41.2923 53.5198 40.8849C54.0513 39.4934 58.4432 30.697 53.8231 27.4013ZM90.229 40.4143C91.698 38.4242 95.9734 33.0945 97.0157 32.1958C100.521 29.1768 101.922 30.5051 102.044 31.4462C98.7721 37.1821 94.9108 43.7532 91.2803 49.6608C91.2878 49.6397 90.1442 51.3515 90.1442 51.3515C88.5408 53.7478 86.9264 55.8029 84.2929 57.2365C83.9173 57.3444 83.2983 57.3874 82.8864 57.0865C82.3904 56.7653 82.1948 56.2302 82.2506 55.6736C82.4087 53.8335 84.3225 48.2055 90.229 40.4143ZM49.1494 43.86C49.1494 43.86 49.0834 44.0533 49.0511 44.1165C49.0428 44.1165 45.7586 49.3596 45.7586 49.3596C43.7767 51.9498 41.3022 55.2039 38.2089 56.7656C37.292 57.0651 36.0244 57.2584 35.3785 56.467C34.0094 54.8615 34.715 52.6353 35.2883 50.8379L35.4915 50.1957C37.1352 45.8299 39.743 41.9766 42.2818 38.4022C42.3134 38.3812 42.3845 38.3598 42.4102 38.3598C42.4165 38.3812 42.4266 38.3812 42.4308 38.4242C44.0238 41.4201 47.0107 42.8107 49.2444 43.4538C49.2579 43.4538 49.2725 43.4751 49.2725 43.5181C49.2728 43.5819 49.2364 43.6681 49.1494 43.86ZM52.2606 37.6752C52.246 37.7179 50.7979 40.9711 50.7979 40.9711C50.5885 41.1422 50.2575 41.0568 49.8781 40.9711L49.228 40.8635C47.1866 40.2432 45.6469 38.9161 45.1722 37.3324C44.5176 34.2503 47.2072 31.8317 48.3921 30.9546C49.5291 30.1834 51.2968 29.7769 52.3233 30.5692C52.9564 31.2971 53.1963 32.2385 53.1963 33.2665C53.1966 34.6571 52.758 36.2194 52.2606 37.6752ZM147.723 47.6054C146.995 46.0648 145.267 45.0801 143.424 45.1868C137.443 45.7223 131.592 50.5379 128.519 57.4506C126.907 61.0039 126.027 63.9357 125.45 68.6015C127.311 66.5046 131.105 63.0589 135.411 61.1752C135.411 61.1752 135.996 56.7022 138.984 52.721C140.114 51.0725 142.376 48.4187 144.917 49.1247C147.136 49.8526 146.356 55.8672 143.406 61.6876C141.224 65.9688 137.884 70.2506 134.504 73.2035C131.516 75.6862 127.096 78.6826 123.228 76.3714C120.792 74.9594 119.55 72.0048 119.812 68.1953C120.976 57.3871 126.002 48.1836 133.194 37.6963C140.611 27.9579 148.786 17.9627 159.798 12.6325C162.045 11.5197 164.125 11.2629 165.923 11.9478C165.923 11.9478 155.585 17.5126 150.657 27.8078C149.404 30.4194 147.66 33.9499 149.416 37.0751C150.333 38.7014 151.962 38.8301 153.274 38.7444C159.314 37.3743 163.217 31.8525 166.406 26.8018C168.254 22.9707 169.897 19.1609 169.897 14.9229C169.897 14.4094 169.87 13.7248 169.826 13.2106C172.712 11.713 178.629 14.3664 178.629 14.3664C183.254 15.8652 193.1 23.2497 196.422 24.6616C198.042 22.8212 200.704 20.0391 202.204 18.6476L200.033 17.3418C196.559 15.2657 192.886 13.2963 189.272 11.3489C181.062 6.9618 174.38 8.50244 170.979 9.7012C169.643 10.1718 168.421 10.5786 168.421 10.5786C165.898 7.88185 161.758 8.13804 158.708 8.86625C147.74 11.9481 137.556 19.4604 126.639 32.4953C118.612 42.7048 113.633 51.5231 110.979 60.2338C108.933 66.0981 108.312 74.7234 113.304 79.839C117.549 84.1828 123.178 83.2417 127.153 81.68C135.765 77.5277 143.505 68.5807 147.362 58.2855C148.293 55.2253 149.326 50.902 147.723 47.6054ZM167.526 15.3514C166.386 28.1506 156.223 35.6637 153.708 36.2621C152.184 36.5612 149.584 35.8983 151.906 30.5268C155.324 23.2918 161.161 17.1497 167.422 14.0032C167.575 14.5384 167.571 14.88 167.526 15.3514ZM227.814 16.9774C222.347 20.0172 216.679 21.9857 209.82 21.3011C207.919 23.3991 206.067 25.5606 204.361 27.7862C213.99 30.1834 224.197 24.8541 229.89 19.7821C235.912 14.6665 239 8.22461 239 8.22461C239 8.22461 234.486 13.2753 227.814 16.9774ZM124.498 27.6359H117.327L113.282 34.0698H120.451L124.498 27.6359Z" fill="#E61A27"/>
<path d="M209.791 75.6186C209.02 76.1321 207.936 75.7373 208.341 74.5605C209.35 71.564 213.361 65.4576 213.361 65.4576L224.534 46.0604H216.881C216.517 46.6453 215.74 47.9882 215.74 47.9882C215.385 47.4109 214.327 46.1273 213.891 45.8498C212.021 44.6932 209.278 45.24 207.386 46.2885C199.159 50.9979 193.156 60.3022 188.422 67.5583C188.422 67.5583 183.438 75.6241 180.672 76.224C178.513 76.3953 178.735 73.5474 178.829 72.8839C179.664 68.0888 181.603 63.5303 183.557 59.3994C187.531 56.7027 192.065 53.1714 196.187 49.2975C205.131 40.9281 212.671 31.4465 213.773 29.3277C213.773 29.3277 212.58 29.5634 211.171 29.6058C204.291 39.0017 190.21 52.6575 185.941 54.6904C187.832 50.2375 200.05 28.9849 210.447 18.8187L212.084 17.2772C214.614 14.8586 217.235 12.376 219.278 11.9692C219.494 11.9478 219.771 11.9692 220.011 12.4622C220.102 14.3453 219.386 15.7368 218.565 17.3205L217.413 19.6323C217.413 19.6323 219.044 19.3325 220.116 18.9892C221.358 16.7002 222.735 14.131 222.227 11.071C222.058 10.0863 221.33 9.33737 220.378 9.16599C217.277 8.58811 213.897 10.8347 211.176 12.6547L211.067 12.7184C197.085 23.4415 185.278 38.8947 174.956 59.9984C174.208 60.5541 171.317 61.2182 170.826 60.8968C171.846 58.8426 173.129 56.081 173.771 53.0845C173.882 52.2279 173.986 51.3511 173.986 50.4951C173.986 48.653 173.534 46.9199 171.848 45.722C169.872 44.7587 167.429 45.2085 165.782 45.9355C158.403 48.932 152.889 56.3381 148.909 62.4372C146.769 66.3122 144.635 70.4624 144.044 75.2147C143.628 78.9382 144.475 81.3358 146.638 82.5345C148.862 83.6467 151.661 82.4906 152.761 81.9347C160.236 78.0819 165.459 70.3559 169.576 63.2926C169.739 63.2715 171.987 63.2078 173.688 62.779C173.71 62.779 173.72 62.779 173.757 62.8013C173.66 63.1212 172.781 65.6904 172.781 65.6904C170.172 73.1807 168.965 78.2752 171.43 81.2928C174.952 85.552 180.783 81.1436 185.526 75.3209C184.508 82.2979 188.202 83.3902 191.018 82.8556C194.253 81.9999 197.857 78.6174 199.53 76.8843C198.992 78.9172 199.138 82.5564 202.081 82.9197C204.098 83.2847 205.607 82.2108 207.353 81.2901C213.618 77.9509 221.117 66.8239 223.064 63.607H220.511C217.743 67.7022 214.221 73.0704 209.791 75.6186ZM153.561 74.8734C153.163 74.2952 153.032 73.6635 153.018 72.9804C152.942 68.7834 157.555 61.2679 160.81 57.1736H160.817C162.181 60.0981 165.271 61.978 167.136 62.7703C164.82 67.8218 156.875 78.6402 153.561 74.8734ZM168.444 60.5119C168.223 60.6628 164.327 59.3778 163.574 55.8464C162.935 52.8061 165.074 50.4305 167.143 49.2332C168.032 48.5477 169.369 48.3131 170.351 48.6541C171.262 49.2546 171.508 50.3255 171.508 51.4792C171.508 52.187 171.412 52.914 171.328 53.5773L171.309 53.7276C170.657 56.1005 169.694 58.3808 168.444 60.5119ZM199.692 73.5252C199.689 73.5252 198.953 74.1671 198.953 74.1671C197.902 75.0872 196.82 76.0716 195.515 75.5791C195.154 75.451 194.9 74.9805 194.84 74.6155C194.78 71.9828 195.991 69.5435 197.166 67.1679L197.467 66.547C200.845 61.0252 204.772 54.5187 210.539 50.0032C211.511 49.3168 212.565 48.7401 213.678 49.1899C213.934 49.4251 214.233 49.8319 214.233 50.2381C214.233 50.367 214.116 50.7092 214.048 50.816C212.437 53.3641 210.904 56.0389 209.412 58.6072C206.497 63.6798 203.473 68.9226 199.692 73.5252Z" fill="#E61A27"/>
</g>
<path d="M68.272 116.434L66.13 113.194L68.272 109.972H70.162L67.948 113.194L70.162 116.434H68.272ZM71.728 116.434L69.586 113.194L71.728 109.972H73.6L71.422 113.194L73.6 116.434H71.728ZM81.3199 118.144C80.0119 118.144 78.9139 117.868 78.0259 117.316C77.1499 116.764 76.4899 116.002 76.0459 115.03C75.6019 114.058 75.3799 112.936 75.3799 111.664C75.3799 110.392 75.6019 109.264 76.0459 108.28C76.5019 107.296 77.1679 106.528 78.0439 105.976C78.9319 105.412 80.0299 105.13 81.3379 105.13C82.2859 105.13 83.1139 105.286 83.8219 105.598C84.5299 105.898 85.0999 106.33 85.5319 106.894C85.9759 107.446 86.2699 108.106 86.4139 108.874H84.5419C84.3619 108.262 83.9959 107.776 83.4439 107.416C82.8919 107.056 82.1839 106.876 81.3199 106.876C80.3599 106.876 79.5859 107.098 78.9979 107.542C78.4219 107.986 78.0019 108.568 77.7379 109.288C77.4739 109.996 77.3419 110.764 77.3419 111.592C77.3419 112.444 77.4799 113.236 77.7559 113.968C78.0319 114.7 78.4699 115.288 79.0699 115.732C79.6699 116.176 80.4379 116.398 81.3739 116.398C81.9499 116.398 82.4599 116.32 82.9039 116.164C83.3479 115.996 83.7199 115.762 84.0199 115.462C84.3199 115.15 84.5239 114.79 84.6319 114.382H86.6299C86.4739 115.162 86.1559 115.834 85.6759 116.398C85.1959 116.962 84.5899 117.394 83.8579 117.694C83.1259 117.994 82.2799 118.144 81.3199 118.144ZM92.6785 118.108C91.6945 118.108 90.8605 117.91 90.1765 117.514C89.4925 117.106 88.9705 116.536 88.6105 115.804C88.2625 115.072 88.0885 114.226 88.0885 113.266C88.0885 112.294 88.2685 111.448 88.6285 110.728C88.9885 109.996 89.5105 109.426 90.1945 109.018C90.8785 108.598 91.7125 108.388 92.6965 108.388C93.6805 108.388 94.5145 108.598 95.1985 109.018C95.8825 109.426 96.3985 109.996 96.7465 110.728C97.0945 111.46 97.2685 112.312 97.2685 113.284C97.2685 114.232 97.0885 115.072 96.7285 115.804C96.3805 116.536 95.8645 117.106 95.1805 117.514C94.5085 117.91 93.6745 118.108 92.6785 118.108ZM92.6785 116.452C93.3265 116.452 93.8485 116.308 94.2445 116.02C94.6525 115.732 94.9525 115.348 95.1445 114.868C95.3365 114.376 95.4325 113.842 95.4325 113.266C95.4325 112.69 95.3365 112.162 95.1445 111.682C94.9525 111.202 94.6525 110.818 94.2445 110.53C93.8485 110.23 93.3265 110.08 92.6785 110.08C92.0425 110.08 91.5205 110.23 91.1125 110.53C90.7045 110.818 90.4045 111.202 90.2125 111.682C90.0325 112.162 89.9425 112.69 89.9425 113.266C89.9425 113.854 90.0325 114.388 90.2125 114.868C90.4045 115.348 90.7045 115.732 91.1125 116.02C91.5205 116.308 92.0425 116.452 92.6785 116.452ZM103.293 118.108C102.297 118.108 101.463 117.904 100.791 117.496C100.131 117.088 99.6331 116.524 99.2971 115.804C98.9731 115.072 98.8111 114.232 98.8111 113.284C98.8111 112.348 98.9791 111.514 99.3151 110.782C99.6631 110.038 100.179 109.456 100.863 109.036C101.559 108.604 102.417 108.388 103.437 108.388C104.133 108.388 104.751 108.508 105.291 108.748C105.831 108.976 106.269 109.318 106.605 109.774C106.953 110.218 107.181 110.776 107.289 111.448H105.435C105.279 110.956 105.015 110.602 104.643 110.386C104.283 110.17 103.857 110.062 103.365 110.062C102.705 110.062 102.177 110.218 101.781 110.53C101.397 110.842 101.115 111.244 100.935 111.736C100.755 112.228 100.665 112.744 100.665 113.284C100.665 113.848 100.755 114.37 100.935 114.85C101.127 115.33 101.415 115.72 101.799 116.02C102.195 116.308 102.711 116.452 103.347 116.452C103.827 116.452 104.271 116.35 104.679 116.146C105.087 115.93 105.351 115.57 105.471 115.066H107.379C107.271 115.762 107.019 116.338 106.623 116.794C106.227 117.238 105.735 117.568 105.147 117.784C104.571 118 103.953 118.108 103.293 118.108ZM112.197 118.108C111.765 118.108 111.345 118.054 110.937 117.946C110.541 117.826 110.187 117.652 109.875 117.424C109.563 117.184 109.311 116.89 109.119 116.542C108.939 116.182 108.849 115.762 108.849 115.282C108.849 114.706 108.957 114.232 109.173 113.86C109.401 113.476 109.701 113.182 110.073 112.978C110.445 112.762 110.871 112.612 111.351 112.528C111.843 112.432 112.353 112.384 112.881 112.384H115.203C115.203 111.916 115.131 111.508 114.987 111.16C114.843 110.8 114.615 110.524 114.303 110.332C114.003 110.128 113.601 110.026 113.097 110.026C112.797 110.026 112.509 110.062 112.233 110.134C111.969 110.194 111.741 110.296 111.549 110.44C111.357 110.584 111.225 110.776 111.153 111.016H109.209C109.281 110.56 109.443 110.17 109.695 109.846C109.947 109.51 110.259 109.234 110.631 109.018C111.003 108.802 111.399 108.646 111.819 108.55C112.251 108.442 112.689 108.388 113.133 108.388C114.501 108.388 115.485 108.79 116.085 109.594C116.697 110.386 117.003 111.478 117.003 112.87V118H115.401L115.329 116.794C115.053 117.166 114.723 117.448 114.339 117.64C113.967 117.832 113.595 117.958 113.223 118.018C112.851 118.078 112.509 118.108 112.197 118.108ZM112.485 116.542C113.025 116.542 113.499 116.452 113.907 116.272C114.315 116.08 114.633 115.81 114.861 115.462C115.089 115.102 115.203 114.682 115.203 114.202V113.806H113.511C113.163 113.806 112.821 113.818 112.485 113.842C112.161 113.854 111.861 113.902 111.585 113.986C111.321 114.058 111.105 114.184 110.937 114.364C110.781 114.544 110.703 114.802 110.703 115.138C110.703 115.462 110.787 115.726 110.955 115.93C111.123 116.134 111.345 116.29 111.621 116.398C111.897 116.494 112.185 116.542 112.485 116.542ZM119.354 113.716V112.024H125.114V113.716H119.354ZM133.105 118.144C131.797 118.144 130.699 117.868 129.811 117.316C128.935 116.764 128.275 116.002 127.831 115.03C127.387 114.058 127.165 112.936 127.165 111.664C127.165 110.392 127.387 109.264 127.831 108.28C128.287 107.296 128.953 106.528 129.829 105.976C130.717 105.412 131.815 105.13 133.123 105.13C134.071 105.13 134.899 105.286 135.607 105.598C136.315 105.898 136.885 106.33 137.317 106.894C137.761 107.446 138.055 108.106 138.199 108.874H136.327C136.147 108.262 135.781 107.776 135.229 107.416C134.677 107.056 133.969 106.876 133.105 106.876C132.145 106.876 131.371 107.098 130.783 107.542C130.207 107.986 129.787 108.568 129.523 109.288C129.259 109.996 129.127 110.764 129.127 111.592C129.127 112.444 129.265 113.236 129.541 113.968C129.817 114.7 130.255 115.288 130.855 115.732C131.455 116.176 132.223 116.398 133.159 116.398C133.735 116.398 134.245 116.32 134.689 116.164C135.133 115.996 135.505 115.762 135.805 115.462C136.105 115.15 136.309 114.79 136.417 114.382H138.415C138.259 115.162 137.941 115.834 137.461 116.398C136.981 116.962 136.375 117.394 135.643 117.694C134.911 117.994 134.065 118.144 133.105 118.144ZM144.464 118.108C143.48 118.108 142.646 117.91 141.962 117.514C141.278 117.106 140.756 116.536 140.396 115.804C140.048 115.072 139.874 114.226 139.874 113.266C139.874 112.294 140.054 111.448 140.414 110.728C140.774 109.996 141.296 109.426 141.98 109.018C142.664 108.598 143.498 108.388 144.482 108.388C145.466 108.388 146.3 108.598 146.984 109.018C147.668 109.426 148.184 109.996 148.532 110.728C148.88 111.46 149.054 112.312 149.054 113.284C149.054 114.232 148.874 115.072 148.514 115.804C148.166 116.536 147.65 117.106 146.966 117.514C146.294 117.91 145.46 118.108 144.464 118.108ZM144.464 116.452C145.112 116.452 145.634 116.308 146.03 116.02C146.438 115.732 146.738 115.348 146.93 114.868C147.122 114.376 147.218 113.842 147.218 113.266C147.218 112.69 147.122 112.162 146.93 111.682C146.738 111.202 146.438 110.818 146.03 110.53C145.634 110.23 145.112 110.08 144.464 110.08C143.828 110.08 143.306 110.23 142.898 110.53C142.49 110.818 142.19 111.202 141.998 111.682C141.818 112.162 141.728 112.69 141.728 113.266C141.728 113.854 141.818 114.388 141.998 114.868C142.19 115.348 142.49 115.732 142.898 116.02C143.306 116.308 143.828 116.452 144.464 116.452ZM150.956 118V105.274H152.81V118H150.956ZM158.129 118.108C157.697 118.108 157.277 118.054 156.869 117.946C156.473 117.826 156.119 117.652 155.807 117.424C155.495 117.184 155.243 116.89 155.051 116.542C154.871 116.182 154.781 115.762 154.781 115.282C154.781 114.706 154.889 114.232 155.105 113.86C155.333 113.476 155.633 113.182 156.005 112.978C156.377 112.762 156.803 112.612 157.283 112.528C157.775 112.432 158.285 112.384 158.813 112.384H161.135C161.135 111.916 161.063 111.508 160.919 111.16C160.775 110.8 160.547 110.524 160.235 110.332C159.935 110.128 159.533 110.026 159.029 110.026C158.729 110.026 158.441 110.062 158.165 110.134C157.901 110.194 157.673 110.296 157.481 110.44C157.289 110.584 157.157 110.776 157.085 111.016H155.141C155.213 110.56 155.375 110.17 155.627 109.846C155.879 109.51 156.191 109.234 156.563 109.018C156.935 108.802 157.331 108.646 157.751 108.55C158.183 108.442 158.621 108.388 159.065 108.388C160.433 108.388 161.417 108.79 162.017 109.594C162.629 110.386 162.935 111.478 162.935 112.87V118H161.333L161.261 116.794C160.985 117.166 160.655 117.448 160.271 117.64C159.899 117.832 159.527 117.958 159.155 118.018C158.783 118.078 158.441 118.108 158.129 118.108ZM158.417 116.542C158.957 116.542 159.431 116.452 159.839 116.272C160.247 116.08 160.565 115.81 160.793 115.462C161.021 115.102 161.135 114.682 161.135 114.202V113.806H159.443C159.095 113.806 158.753 113.818 158.417 113.842C158.093 113.854 157.793 113.902 157.517 113.986C157.253 114.058 157.037 114.184 156.869 114.364C156.713 114.544 156.635 114.802 156.635 115.138C156.635 115.462 156.719 115.726 156.887 115.93C157.055 116.134 157.277 116.29 157.553 116.398C157.829 116.494 158.117 116.542 158.417 116.542ZM168.471 116.434L170.685 113.212L168.471 109.972H170.343L172.485 113.212L170.343 116.434H168.471ZM165.015 116.434L167.193 113.212L165.015 109.972H166.887L169.029 113.212L166.887 116.434H165.015Z" fill="#1A1A1A"/>
<defs>
<clipPath id="clip0_801_4983">
<rect width="239" height="93" fill="white"/>
</clipPath>
</defs>
</svg>
