<svg width="148" height="48" viewBox="0 0 148 48" fill="none" xmlns="http://www.w3.org/2000/svg">
<path d="M56.9259 41.8719C51.4483 38.3582 44.0146 37.7416 32.0261 41.0538C19.2454 44.0446 14.9841 45.9618 9.38786 42.1131C7.2379 40.2224 6.46709 37.1783 7.04267 32.7934C8.37765 25.6454 11.9853 18.7665 18.3936 11.1361C21.9704 7.16684 25.2884 3.76046 29.6695 2.3926C33.0272 1.5345 32.7133 4.1623 32.307 4.53812C31.8783 4.53812 31.1581 4.60537 30.6015 4.96708C30.1497 5.31596 28.9097 6.4425 28.8431 7.95787C28.747 10.2776 31.1577 9.79482 32.1976 8.52114C33.3183 7.08584 34.9748 4.33729 33.6718 1.77564C33.1257 0.86385 32.1821 0.233698 31.0105 0.0191272C26.9988 -0.209186 23.2626 1.6952 19.8143 3.80059C12.2733 9.01716 6.24094 16.2455 2.82758 24.1577C0.859796 28.9315 -0.919934 35.7699 1.74764 41.3358C3.81148 45.1977 8.09575 47.249 13.2073 46.8201C16.7924 46.445 21.1274 45.2911 24.043 44.5945C26.9588 43.8965 41.8834 38.7879 46.7872 47.6794C46.7872 47.6794 48.4179 44.5272 52.4931 44.46C55.8436 44.1521 60.6771 45.4258 64.1968 48.0001C63.0241 46.244 59.6995 43.6557 56.9259 41.8719Z" fill="#1A1A1A"/>
<path d="M33.548 12.0345C30.7566 10.2107 25.1461 13.6974 20.6525 19.6781C16.5432 25.0427 14.7688 31.2777 16.7 34.1609C19.5723 37.5536 24.9051 32.6188 27.1728 29.9774L27.4654 29.6687C29.0076 28.0192 30.1988 26.0344 31.3522 24.1298C31.3522 24.1298 32.4121 22.3865 32.4627 22.3059C33.1178 22.1856 33.9068 21.9978 34.7959 21.743C34.7832 21.7829 31.3942 27.4555 31.7399 30.2712C31.8475 31.1302 31.7655 34.2681 34.8419 35.22C38.9424 35.9044 42.2166 32.7392 45.1052 29.923C45.1052 29.923 45.5974 29.4541 45.8758 29.1864C45.8053 29.4671 45.7135 29.8418 45.7135 29.8418C44.513 33.9991 46.1312 34.8715 47.1434 35.1933C50.2026 36.079 53.8572 31.6533 53.8691 31.6533C53.7742 33.0474 53.4973 34.2005 54.973 35.126C56.3658 35.6226 57.7754 34.8655 58.8471 34.1547C62.7067 31.4461 65.8161 27.2063 68.3274 23.5418H66.7254C66.7065 23.5418 62.7726 29.2199 60.218 30.454C60.2139 30.454 59.7489 30.6917 59.4812 30.5037C59.1494 30.2221 59.2803 29.6362 59.4851 29.2214C59.498 29.1945 69.3487 12.1811 69.3487 12.1811H64.6977C64.6977 12.1811 64.1896 12.9996 64.1482 13.0533C64.1169 13.0265 64.0424 12.8858 63.9909 12.8184C61.1093 8.84911 54.5838 14.9546 49.671 22.0348C47.7796 24.7574 45.3714 27.8228 42.8744 30.0353C42.8744 30.0353 39.1751 33.412 37.5947 30.986C37.0169 29.9666 37.1947 28.4764 37.5205 27.4977C39.3608 22.2809 42.5318 17.5466 46.1404 14.6902C47.1589 13.8995 48.2663 13.6708 48.8155 14.0061C49.3392 14.3151 49.4237 15.0788 49.0925 15.6019C48.2521 15.5752 47.5786 15.8295 47.0314 16.3928C45.9531 17.5193 45.5784 18.6057 45.9213 19.6251C47.5867 21.9852 50.9083 17.3183 50.7476 14.4754C50.6902 13.4561 50.1443 12.4908 49.3291 12.0209C48.1145 11.2972 46.2615 11.4846 45.0623 12.0616C43.4568 12.6648 40.9159 14.77 39.4326 16.4064C37.5652 18.4584 34.3626 20.7379 33.3612 20.4826C33.6886 19.6108 36.3937 14.0994 33.548 12.0345ZM55.9714 20.1878C56.8762 18.9409 59.5095 15.6016 60.1516 15.0385C62.3107 13.1469 63.1737 13.9792 63.2484 14.5689C61.2333 18.1627 58.855 22.2798 56.619 25.9812C56.6236 25.968 55.9192 27.0405 55.9192 27.0405C54.9316 28.542 53.9372 29.8296 52.3152 30.7278C52.0839 30.7954 51.7026 30.8223 51.4489 30.6338C51.1434 30.4326 51.0229 30.0973 51.0573 29.7486C51.1546 28.5956 52.3334 25.0694 55.9714 20.1878ZM30.6693 22.3467C30.6693 22.3467 30.6287 22.4678 30.6088 22.5074C30.6037 22.5074 28.5808 25.7925 28.5808 25.7925C27.3601 27.4154 25.836 29.4543 23.9308 30.4328C23.366 30.6204 22.5853 30.7415 22.1875 30.2457C21.3442 29.2397 21.7788 27.8449 22.1319 26.7187L22.257 26.3164C23.2694 23.581 24.8757 21.1667 26.4394 18.9271C26.4589 18.914 26.5027 18.9006 26.5185 18.9006C26.5223 18.914 26.5286 18.914 26.5312 18.9409C27.5123 20.818 29.352 21.6893 30.7279 22.0922C30.7361 22.0922 30.7452 22.1056 30.7452 22.1325C30.7453 22.1725 30.7229 22.2265 30.6693 22.3467ZM32.5856 18.4716C32.5766 18.4984 31.6847 20.5367 31.6847 20.5367C31.5557 20.6439 31.3518 20.5904 31.1181 20.5367L30.7177 20.4693C29.4604 20.0806 28.512 19.2491 28.2196 18.2569C27.8165 16.3257 29.4731 14.8104 30.2029 14.2608C30.9032 13.7776 31.992 13.5229 32.6242 14.0193C33.0142 14.4754 33.1619 15.0652 33.1619 15.7093C33.1621 16.5806 32.892 17.5595 32.5856 18.4716ZM91.3837 24.6934C90.9351 23.7281 89.8706 23.1112 88.736 23.1781C85.0516 23.5136 81.4478 26.5308 79.5554 30.8619C78.5625 33.0883 78.0206 34.9252 77.6653 37.8486C78.8111 36.5348 81.148 34.3759 83.8 33.1956C83.8 33.1956 84.1608 30.393 86.0009 27.8986C86.6972 26.8657 88.0905 25.203 89.6551 25.6453C91.0223 26.1014 90.5417 29.8699 88.7248 33.5167C87.3804 36.1991 85.3232 38.8818 83.2417 40.732C81.4014 42.2875 78.6786 44.1649 76.2965 42.7168C74.7961 41.8321 74.0308 39.9809 74.1923 37.594C74.9092 30.8222 78.005 25.0557 82.435 18.4848C87.0028 12.3832 92.038 6.12071 98.8211 2.78104C100.205 2.08382 101.486 1.92294 102.593 2.35208C102.593 2.35208 96.2261 5.83871 93.1908 12.2892C92.4187 13.9255 91.3449 16.1375 92.4263 18.0956C92.9914 19.1146 93.9946 19.1952 94.8026 19.1415C98.523 18.2831 100.927 14.8234 102.891 11.6589C104.029 9.25846 105.041 6.87144 105.041 4.21615C105.041 3.89438 105.025 3.46543 104.997 3.14329C106.775 2.20494 110.42 3.86745 110.42 3.86745C113.268 4.80654 119.333 9.43327 121.379 10.3179C122.376 9.16483 124.016 7.4217 124.94 6.54985L123.603 5.7317C121.463 4.4309 119.201 3.19698 116.975 1.97681C111.918 -0.77193 107.802 0.193362 105.708 0.944451C104.885 1.23928 104.132 1.49416 104.132 1.49416C102.578 -0.195467 100.028 -0.034951 98.1497 0.421309C91.394 2.35226 85.1217 7.05907 78.3971 15.2261C73.4532 21.6229 70.3865 27.1481 68.7519 32.6058C67.492 36.2801 67.1091 41.6843 70.1842 44.8894C72.7988 47.6111 76.2657 47.0214 78.7138 46.0429C84.0182 43.4413 88.7857 37.8356 91.1612 31.3851C91.7346 29.4677 92.3707 26.7589 91.3837 24.6934ZM103.581 4.48459C102.879 12.504 96.6191 17.2113 95.0701 17.5862C94.1315 17.7737 92.5299 17.3583 93.9598 13.9928C96.0652 9.45966 99.6602 5.61131 103.517 3.63987C103.611 3.97519 103.608 4.18921 103.581 4.48459ZM140.714 5.50339C137.346 7.40795 133.856 8.64132 129.631 8.21236C128.46 9.52691 127.319 10.8812 126.269 12.2756C132.199 13.7776 138.486 10.4385 141.992 7.26063C145.702 4.05545 147.604 0.0192871 147.604 0.0192871C147.604 0.0192871 144.823 3.18379 140.714 5.50339ZM77.0787 12.1815H72.6617L70.1703 16.2127H74.5863L77.0787 12.1815Z" fill="#1A1A1A"/>
<path d="M129.613 42.2448C129.138 42.5665 128.471 42.3192 128.72 41.5818C129.341 39.7044 131.812 35.8784 131.812 35.8784L138.693 23.725H133.98C133.756 24.0915 133.277 24.9329 133.277 24.9329C133.059 24.5712 132.406 23.767 132.138 23.5931C130.986 22.8684 129.297 23.211 128.132 23.8679C123.064 26.8186 119.367 32.6483 116.451 37.1946C116.451 37.1946 113.381 42.2482 111.678 42.6241C110.348 42.7314 110.485 40.9471 110.542 40.5313C111.057 37.527 112.251 34.6708 113.454 32.0826C115.902 30.393 118.695 28.1804 121.233 25.7533C126.742 20.5094 131.387 14.5687 132.065 13.2411C132.065 13.2411 131.331 13.3888 130.463 13.4154C126.225 19.3024 117.552 27.8585 114.923 29.1321C116.088 26.3422 123.613 13.0263 130.017 6.65666L131.025 5.69082C132.583 4.17545 134.198 2.61995 135.456 2.36507C135.589 2.35169 135.76 2.36507 135.908 2.674C135.964 3.85387 135.523 4.72571 135.017 5.71794L134.308 7.16643C134.308 7.16643 135.312 6.97861 135.972 6.76349C136.737 5.32929 137.585 3.71956 137.273 1.80235C137.168 1.18539 136.72 0.716118 136.134 0.608741C134.223 0.246665 132.142 1.65429 130.466 2.79457L130.399 2.83452C121.787 9.55309 114.515 19.2353 108.157 32.4579C107.696 32.806 105.916 33.2222 105.613 33.0208C106.241 31.7337 107.032 30.0034 107.427 28.126C107.496 27.5893 107.559 27.0399 107.559 26.5036C107.559 25.3494 107.281 24.2635 106.243 23.513C105.025 22.9094 103.521 23.1912 102.506 23.6468C97.9617 25.5242 94.5651 30.1645 92.114 33.9859C90.7957 36.4138 89.4813 39.0141 89.1174 41.9917C88.8611 44.3247 89.3829 45.8269 90.7151 46.578C92.0849 47.2748 93.809 46.5505 94.4864 46.2021C99.0905 43.7882 102.307 38.9474 104.843 34.5219C104.944 34.5087 106.328 34.4687 107.376 34.2001C107.39 34.2001 107.395 34.2001 107.419 34.214C107.359 34.4145 106.818 36.0242 106.818 36.0242C105.21 40.7173 104.467 43.9093 105.985 45.7999C108.155 48.4686 111.746 45.7065 114.668 42.0582C114.04 46.4297 116.315 47.1141 118.05 46.7792C120.042 46.243 122.262 44.1237 123.293 43.0378C122.962 44.3115 123.051 46.5917 124.864 46.8193C126.106 47.048 127.036 46.3751 128.111 45.7983C131.97 43.7061 136.589 36.7345 137.788 34.7189H136.215C134.511 37.2847 132.341 40.6482 129.613 42.2448ZM94.979 41.7779C94.7342 41.4156 94.6531 41.0198 94.645 40.5918C94.5981 37.9622 97.4392 33.2533 99.4443 30.688H99.4485C100.289 32.5204 102.192 33.6982 103.34 34.1946C101.914 37.3597 97.0205 44.138 94.979 41.7779ZM104.146 32.7797C104.01 32.8742 101.61 32.0691 101.147 29.8565C100.753 27.9515 102.07 26.4631 103.345 25.7129C103.892 25.2834 104.716 25.1365 105.32 25.3501C105.881 25.7263 106.033 26.3973 106.033 27.1202C106.033 27.5636 105.974 28.0192 105.922 28.4347L105.911 28.5289C105.509 30.0157 104.916 31.4444 104.146 32.7797ZM123.393 40.9332C123.391 40.9332 122.937 41.3354 122.937 41.3354C122.29 41.9118 121.624 42.5286 120.82 42.22C120.598 42.1398 120.441 41.8449 120.404 41.6163C120.367 39.9668 121.113 38.4384 121.836 36.9499L122.022 36.5609C124.103 33.1012 126.521 29.0246 130.073 26.1954C130.672 25.7653 131.322 25.404 132.007 25.6858C132.165 25.8331 132.349 26.088 132.349 26.3425C132.349 26.4234 132.276 26.6377 132.235 26.7046C131.243 28.3012 130.298 29.9771 129.379 31.5862C127.584 34.7645 125.721 38.0494 123.393 40.9332Z" fill="#1A1A1A"/>
</svg>
