<svg width="158" height="48" viewBox="0 0 158 48" fill="none" xmlns="http://www.w3.org/2000/svg">
<path d="M136.038 47.896C135.124 47.806 133.547 47.5717 132.532 47.3753C130.354 46.9536 125.22 45.6038 124.999 45.3949C124.914 45.3148 124.914 43.2176 124.999 40.7344L125.153 36.2196L126.444 37.0431C128.316 38.2371 131.906 39.8934 133.824 40.4481C135.844 41.0325 138.887 41.221 140.913 40.8873C143.505 40.4605 145.872 38.9501 146.736 37.1706C147.422 35.7601 147.419 33.7047 146.728 32.4017C145.821 30.6902 143.509 29.0968 138.897 27.0059C132.62 24.1602 130.348 22.8884 128.353 21.1024C126.966 19.8607 125.715 18.0356 125.12 16.386C124.481 14.6162 124.329 11.8423 124.77 10.0078C126.4 3.23081 134.201 -0.688556 143.97 0.361555C144.884 0.459734 146.786 0.716697 148.199 0.93261C150.436 1.2745 150.953 1.29874 152.206 1.12047C152.997 1.00789 153.896 0.788709 154.204 0.633381L154.763 0.350971V5.91884V11.4867L152.983 10.3245C150.781 8.8874 148.802 7.90657 146.591 7.15596C145.003 6.61704 144.731 6.57989 142.402 6.5827C140.266 6.58579 139.767 6.6424 138.897 6.98385C135.978 8.12898 134.338 10.5841 134.867 13.0153C135.121 14.1822 136.403 15.5267 138.24 16.5521C139.02 16.9879 141.127 17.9666 142.922 18.7268C150.482 21.9295 153.334 23.7981 155.51 26.9743C156.786 28.8364 157.361 30.6923 157.483 33.3402C157.793 40.0864 153.913 44.9069 146.461 47.034C143.712 47.8187 139.114 48.1989 136.038 47.896ZM49.8264 46.8737L42.9464 46.8242L43.3947 46.2411C44.1559 45.2508 44.8218 43.784 45.3285 41.9817L45.8139 40.2546L45.8738 24.0447C45.927 9.64714 45.8996 7.63445 45.6294 6.04284C45.2441 3.77397 44.6236 2.13629 43.6961 0.939927L42.9674 0H60.2824H77.5974L77.5317 2.02624C77.4956 3.14067 77.4335 5.3327 77.3939 6.89742C77.3542 8.46213 77.2738 9.78928 77.215 9.84662C77.1563 9.90394 76.8433 9.73326 76.5195 9.46725C75.7302 8.81887 74.1301 8.04632 72.6588 7.60325C70.5905 6.98039 68.3232 6.82149 62.3333 6.87963L56.7063 6.93427L56.6575 12.4855L56.6087 18.0366L62.838 17.9723C68.9462 17.9093 69.0945 17.8992 70.4681 17.4473C71.2386 17.1939 72.2556 16.7269 72.7281 16.4095L73.5873 15.8324V21.3222V26.812L72.6724 26.211C70.5445 24.813 68.5525 24.4981 61.826 24.4963L56.6141 24.4953L56.6143 30.6641C56.6143 34.0569 56.6977 37.69 56.7994 38.7377C57.1048 41.881 57.9002 44.3585 59.193 46.1929L59.7682 47.0091L58.2373 46.9663C57.3953 46.9427 53.6104 46.9009 49.8264 46.8737ZM83.6304 46.3774C84.3548 45.4502 85.1511 43.6902 85.5704 42.0898C86.2834 39.3678 86.3485 37.4941 86.2722 21.8834C86.2016 7.45144 86.1856 6.87623 85.809 5.25713C85.3697 3.36868 84.5052 1.41536 83.781 0.675419L83.2963 0.180118H100.489H117.681V5.13196V10.0838L116.895 9.49964C115.912 8.76859 113.874 7.84826 112.423 7.48017C110.479 6.98697 108.315 6.84719 102.599 6.84567L97.0177 6.84465V12.5412V18.2377L102.783 18.1447C107.817 18.0635 108.728 18.0049 109.963 17.6825C111.609 17.2531 112.769 16.7204 113.484 16.0668L113.991 15.6026V21.2197C113.991 24.3091 113.921 26.8368 113.835 26.8368C113.749 26.8368 113.537 26.6839 113.364 26.497C112.974 26.0761 111.302 25.333 109.836 24.9285C108.941 24.6816 107.626 24.6084 102.875 24.5411L97.0177 24.4582V30.5679C97.0177 35.4238 97.0735 36.8608 97.2894 37.5707C97.5835 38.5377 98.4101 39.4552 99.3238 39.8291C100.078 40.1376 108.68 40.2642 110.971 40.0005C113.968 39.6554 116.243 38.5295 117.356 36.8401C117.69 36.3342 117.709 36.3268 117.609 36.7429C117.55 36.9906 117.5 39.4018 117.499 42.1012L117.497 47.0092H100.317H83.1375L83.6304 46.3774ZM1.27271 45.7171C1.67747 45.1057 2.22054 43.9508 2.47955 43.1505C3.47541 40.0736 3.50126 39.5086 3.43129 22.3555C3.37277 8.00647 3.33723 6.45237 3.03978 5.23355C2.57119 3.31346 1.89492 1.77108 1.14821 0.919433L0.5 0.180118H17.4876H34.4752V5.13278V10.0854L33.3821 9.29991C32.0825 8.36589 30.4523 7.69807 28.5215 7.30872C27.3931 7.08119 25.8182 7.0243 20.6461 7.0243H14.1811V13.5083V19.9923L19.3007 19.9892C26.1174 19.984 28.1164 19.6715 30.2394 18.2767L31.1543 17.6757V23.2629V28.8501L30.5547 28.3555C30.2249 28.0835 29.4985 27.6628 28.9404 27.4207C27.0185 26.5869 25.8914 26.4541 19.842 26.3487L14.1568 26.2497L14.2151 31.8116C14.2704 37.095 14.2931 37.4094 14.6688 38.0938C15.6399 39.8629 16.231 40.0381 21.5372 40.1295C29.3793 40.2645 32.3132 39.6223 34.666 37.2555L35.3976 36.5195V41.6743V46.8292H17.9672H0.536799L1.27271 45.7171Z" fill="#1A1A1A"/>
</svg>
