<svg width="1712" height="304" viewBox="0 0 1712 304" fill="none" xmlns="http://www.w3.org/2000/svg">
<path d="M7.08809 182.766V201.551H26.2164V195.147L33.3723 196.641V200.199C33.3723 202.997 32.8219 204.895 31.721 205.891C30.6659 206.84 28.6705 207.314 25.7348 207.314H7.56974C4.63398 207.314 2.63857 206.816 1.58354 205.82C0.528496 204.824 0.000976562 202.95 0.000976562 200.199V184.332C0.000976562 181.533 0.551432 179.636 1.65234 178.64C2.66151 177.691 4.63398 177.217 7.56974 177.217H25.7348C28.6705 177.217 30.6659 177.691 31.721 178.64C32.8219 179.636 33.3723 181.533 33.3723 184.332V187.249L26.2164 188.316V182.766H7.08809Z" fill="#FCFCFC"/>
<path d="M44.282 184.332C44.282 181.486 44.8324 179.588 45.9334 178.64C46.9425 177.691 48.915 177.217 51.8507 177.217H74.3506C77.2864 177.217 79.2588 177.691 80.268 178.64C81.3689 179.588 81.9194 181.486 81.9194 184.332V200.199C81.9194 202.997 81.3689 204.895 80.268 205.891C79.213 206.84 77.2405 207.314 74.3506 207.314H51.8507C48.915 207.314 46.9425 206.84 45.9334 205.891C44.8324 204.895 44.282 202.997 44.282 200.199V184.332ZM74.8323 201.551V182.766H51.3691V201.551H74.8323Z" fill="#FCFCFC"/>
<path d="M94.1562 177.217H99.8672L114.11 195.076L128.284 177.217H133.995V207.314H127.39V186.609L114.385 203.685H113.009L99.8672 187.107V207.314H94.1562V177.217Z" fill="#FCFCFC"/>
<path d="M153.922 182.411V190.38H170.092C172.248 190.38 173.326 189.573 173.326 187.961V184.83C173.326 183.217 172.248 182.411 170.092 182.411H153.922ZM146.904 177.217H173.119C175.504 177.217 177.225 177.644 178.28 178.497C179.381 179.446 179.931 180.964 179.931 183.051V189.739C179.931 193.629 177.66 195.574 173.119 195.574H153.922V207.314H146.904V177.217Z" fill="#FCFCFC"/>
<path d="M212.816 195.218L206.004 182.695L199.467 195.218H212.816ZM202.977 177.217H209.788L227.334 207.314H219.353L215.706 200.697H196.44L192.793 207.314H185.706L202.977 177.217Z" fill="#FCFCFC"/>
<path d="M234.592 177.217H239.478L264.179 197.21V177.217H270.578V207.314H265.693L241.06 187.036V207.314H234.592V177.217Z" fill="#FCFCFC"/>
<path d="M294.586 193.795L278.692 177.217H288.256L298.646 188.459L309.173 177.217H317.499L301.673 193.653V207.314H294.586V193.795Z" fill="#FCFCFC"/>
<path d="M1.2529 96.3118H65.1658V106.921H15.8937V119.935H44.6123V130.262H15.8937V144.973H65.8697V156.148H1.2529V96.3118Z" fill="#FCFCFC"/>
<path d="M86.9016 96.3118H101.542V144.973H148.28V156.148H86.9016V96.3118Z" fill="#FCFCFC"/>
<path d="M164.577 96.3118H179.217V120.501L213.989 96.3118H234.965L193.858 124.038L239.611 156.148H216.664L179.217 129.13V156.148H164.577V96.3118Z" fill="#FCFCFC"/>
<path d="M251.875 96.3118H315.788V106.921H266.516V119.935H295.234V130.262H266.516V144.973H316.492V156.148H251.875V96.3118Z" fill="#FCFCFC"/>
<path d="M244.115 303.984C327.654 303.984 395.375 235.935 395.375 151.992C395.375 68.0491 327.654 0 244.115 0C188.437 0 139.785 30.2283 113.526 75.2436H148.267L148.046 75.0217L172.368 50.6421L185.799 64.0815C198.783 55.0983 213.861 49.1095 230.185 46.846V27.0877H264.598V47.7656C280.405 50.9014 294.825 57.6919 307.127 67.1467L322.416 51.821L346.762 76.2006L330.625 92.3751C338.623 104.565 344.057 118.523 346.338 133.566H371.413V168.084H345.844C343.139 182.797 337.329 196.425 329.096 208.261L346.762 225.968L322.416 250.371L304.939 232.853C292.943 241.577 279.088 247.801 263.987 250.725V276.896H229.597V251.456C214.002 249.216 199.512 243.557 186.999 235.14L173.026 249.145L149.645 225.731H111.816C137.635 272.403 187.205 303.984 244.115 303.984Z" fill="#FCFCFC"/>
<path d="M535.002 145.575H520.033V106.843C520.033 105.64 520.079 104.159 520.172 102.401C520.264 100.272 520.449 97.9585 520.726 95.4596C519.155 97.3106 517.168 99.2542 514.766 101.29L462.235 145.575H450.87V73.9419H465.839V111.563C465.839 113.137 465.608 117.255 465.146 123.919C467.271 121.42 469.997 118.828 473.323 116.144L523.637 73.9419H535.002V145.575Z" fill="#FCFCFC"/>
<path d="M556.505 86.8525H570.92V109.203H615.55V86.8525H629.827V145.575H615.55V120.864H570.92V145.575H556.505V86.8525Z" fill="#FCFCFC"/>
<path d="M699.929 86.9914V86.8525H714.205V111.286L747.886 86.8525H768.399L728.065 114.479L773.389 145.575H750.658L714.205 119.754V145.575H714.066V145.714H699.79V119.893L663.476 145.714H640.745L685.93 114.617L645.596 86.9914H666.109L699.79 111.424V86.9914H699.929Z" fill="#FCFCFC"/>
<path d="M855.157 145.575H842.544V113.784C842.544 112.766 842.544 111.563 842.544 110.175C842.637 108.417 842.822 106.519 843.099 104.483C841.713 105.964 840.003 107.537 837.97 109.203L793.34 145.575H783.638V86.8525H796.389V117.671C796.389 118.967 796.204 122.345 795.835 127.806C797.683 125.77 799.993 123.641 802.765 121.42L845.594 86.8525H855.157V145.575Z" fill="#FCFCFC"/>
<path d="M873.908 86.8525H888.323V109.203H932.953V86.8525H947.229V145.575H932.953V120.864H888.323V145.575H873.908V86.8525Z" fill="#FCFCFC"/>
<path d="M1037.57 145.575H1024.95V113.784C1024.95 112.766 1024.95 111.563 1024.95 110.175C1025.05 108.417 1025.23 106.519 1025.51 104.483C1024.12 105.964 1022.41 107.537 1020.38 109.203L975.75 145.575H966.048V86.8525H978.799V117.671C978.799 118.967 978.615 122.345 978.245 127.806C980.093 125.77 982.403 123.641 985.175 121.42L1028 86.8525H1037.57V145.575Z" fill="#FCFCFC"/>
<path d="M1070.46 96.9867V112.535H1103.03C1107.37 112.535 1109.54 110.962 1109.54 107.815V101.707C1109.54 98.56 1107.37 96.9867 1103.03 96.9867H1070.46ZM1056.32 86.8525H1109.13C1113.93 86.8525 1117.4 87.6855 1119.52 89.3514C1121.74 91.2024 1122.85 94.1639 1122.85 98.2361V111.286C1122.85 118.875 1118.27 122.669 1109.13 122.669H1070.46V145.575H1056.32V86.8525Z" fill="#FCFCFC"/>
<path d="M1207.52 145.575H1194.91V113.784C1194.91 112.766 1194.91 111.563 1194.91 110.175C1195 108.417 1195.19 106.519 1195.47 104.483C1194.08 105.964 1192.37 107.537 1190.34 109.203L1145.71 145.575H1136.01V86.8525H1148.76V117.671C1148.76 118.967 1148.57 122.345 1148.2 127.806C1150.05 125.77 1152.36 123.641 1155.13 121.42L1197.96 86.8525H1207.52V145.575Z" fill="#FCFCFC"/>
<path d="M1226.28 86.8525H1240.69V109.203H1285.32V86.8525H1299.6V145.575H1285.32V120.864H1240.69V145.575H1226.28V86.8525Z" fill="#FCFCFC"/>
<path d="M1318.55 86.8525H1378.29V97.8196H1332.69V145.575H1318.55V86.8525Z" fill="#FCFCFC"/>
<path d="M1385.37 100.735C1385.37 95.182 1386.48 91.48 1388.7 89.629C1390.73 87.778 1394.7 86.8525 1400.62 86.8525H1445.94C1451.86 86.8525 1455.83 87.778 1457.86 89.629C1460.08 91.48 1461.19 95.182 1461.19 100.735V131.693C1461.19 137.153 1460.08 140.855 1457.86 142.799C1455.74 144.65 1451.76 145.575 1445.94 145.575H1400.62C1394.7 145.575 1390.73 144.65 1388.7 142.799C1386.48 140.855 1385.37 137.153 1385.37 131.693V100.735ZM1446.91 134.33V97.6808H1399.65V134.33H1446.91Z" fill="#FCFCFC"/>
<path d="M1490.27 120.031V135.024H1522.29C1524.79 135.024 1526.54 134.701 1527.56 134.053C1528.67 133.22 1529.22 131.785 1529.22 129.749V125.307C1529.22 123.271 1528.67 121.836 1527.56 121.003C1526.54 120.355 1524.79 120.031 1522.29 120.031H1490.27ZM1490.27 96.4314V110.314H1522.29C1526.54 110.314 1528.67 108.926 1528.67 106.149V100.596C1528.67 97.8196 1526.54 96.4314 1522.29 96.4314H1490.27ZM1476.14 86.8525H1528.81C1538.05 86.8525 1542.67 90.6471 1542.67 98.2361V105.316C1542.67 110.777 1539.34 114.108 1532.69 115.311C1539.62 116.422 1543.08 120.17 1543.08 126.556V134.053C1543.08 141.734 1537.03 145.575 1524.92 145.575H1476.14V86.8525Z" fill="#FCFCFC"/>
<path d="M1603.27 121.975L1589.54 97.542L1576.38 121.975H1603.27ZM1583.45 86.8525H1597.17L1632.51 145.575H1616.43L1609.09 132.664H1570.28L1562.93 145.575H1548.66L1583.45 86.8525Z" fill="#FCFCFC"/>
<path d="M1712 145.575H1698.14V123.363H1684.69L1660.16 145.575H1639.93L1668.06 123.363H1660.16C1655.36 123.363 1651.84 122.484 1649.63 120.726C1647.41 118.967 1646.3 116.052 1646.3 111.98V98.2361C1646.3 94.1639 1647.41 91.2486 1649.63 89.4902C1651.84 87.7318 1655.36 86.8525 1660.16 86.8525H1712V145.575ZM1666.4 96.9867C1664.09 96.9867 1662.47 97.2643 1661.55 97.8196C1660.53 98.4675 1660.02 99.7169 1660.02 101.568V108.648C1660.02 110.499 1660.53 111.795 1661.55 112.535C1662.47 113.09 1664.09 113.368 1666.4 113.368H1698.14V96.9867H1666.4Z" fill="#FCFCFC"/>
<path d="M445.741 179.535H460.156V203.274L494.391 179.535H515.043L474.571 206.745L519.617 238.258H497.025L460.156 211.742V238.258H445.741V179.535Z" fill="#FCFCFC"/>
<path d="M520.604 193.417C520.604 187.864 521.712 184.162 523.93 182.311C525.963 180.46 529.936 179.535 535.85 179.535H581.173C587.087 179.535 591.06 180.46 593.093 182.311C595.311 184.162 596.42 187.864 596.42 193.417V224.375C596.42 229.836 595.311 233.538 593.093 235.481C590.968 237.332 586.995 238.258 581.173 238.258H535.85C529.936 238.258 525.963 237.332 523.93 235.481C521.712 233.538 520.604 229.836 520.604 224.375V193.417ZM582.144 227.013V190.363H534.88V227.013H582.144Z" fill="#FCFCFC"/>
<path d="M611.367 179.535H622.871L651.562 214.38L680.115 179.535H691.619V238.258H678.313V197.86L652.117 231.178H649.345L622.871 198.832V238.258H611.367V179.535Z" fill="#FCFCFC"/>
<path d="M724.551 190.502V238.258H710.414V179.535H780.27V238.258H766.133V190.502H724.551Z" fill="#FCFCFC"/>
<path d="M836.81 214.657L823.088 190.224L809.92 214.657H836.81ZM816.989 179.535H830.711L866.055 238.258H849.977L842.631 225.347H803.822L796.476 238.258H782.2L816.989 179.535Z" fill="#FCFCFC"/>
<path d="M870.973 179.535H885.388V201.886H930.018V179.535H944.295V238.258H930.018V213.547H885.388V238.258H870.973V179.535Z" fill="#FCFCFC"/>
<path d="M1034.63 238.258H1022.02V206.467C1022.02 205.449 1022.02 204.246 1022.02 202.857C1022.11 201.099 1022.3 199.202 1022.57 197.166C1021.19 198.646 1019.48 200.22 1017.45 201.886L972.816 238.258H963.113V179.535H975.865V210.354C975.865 211.65 975.68 215.028 975.31 220.488C977.159 218.452 979.469 216.323 982.241 214.102L1025.07 179.535H1034.63V238.258Z" fill="#FCFCFC"/>
<path d="M1127.95 238.258H1114.09V216.046H1100.65L1076.11 238.258H1055.88L1084.01 216.046H1076.11C1071.31 216.046 1067.8 215.167 1065.58 213.408C1063.36 211.65 1062.25 208.734 1062.25 204.662V190.919C1062.25 186.846 1063.36 183.931 1065.58 182.173C1067.8 180.414 1071.31 179.535 1076.11 179.535H1127.95V238.258ZM1082.35 189.669C1080.04 189.669 1078.42 189.947 1077.5 190.502C1076.48 191.15 1075.98 192.399 1075.98 194.25V201.33C1075.98 203.181 1076.48 204.477 1077.5 205.217C1078.42 205.773 1080.04 206.05 1082.35 206.05H1114.09V189.669H1082.35Z" fill="#FCFCFC"/>
</svg>
