<svg width="55" height="50" viewBox="0 0 55 50" fill="none" xmlns="http://www.w3.org/2000/svg">
<path d="M45.8333 19.0275C45.8325 18.7646 45.8264 18.5031 45.8146 18.2429V3.40554L41.7127 7.50744C38.3555 3.39812 33.2484 0.773438 27.5279 0.773438C21.5748 0.773438 16.2861 3.61497 12.9429 8.01554L19.6664 14.8098C20.3253 13.5912 21.2614 12.5445 22.39 11.754C23.5638 10.838 25.227 10.089 27.5277 10.089C27.8057 10.089 28.0202 10.1215 28.1778 10.1827C31.0284 10.4077 33.4993 11.9809 34.9542 14.2642L30.1949 19.0234C36.2231 18.9998 43.033 18.9859 45.8328 19.0265" fill="#1C3AA9"/>
<path d="M27.4208 0.666687C27.1579 0.66756 26.8964 0.673627 26.6361 0.685413H11.7988L15.9007 4.78732C11.7913 8.1445 9.16666 13.2516 9.16666 18.9721C9.16666 24.9252 12.0082 30.2139 16.4088 33.5571L23.203 26.8336C21.9844 26.1747 20.9378 25.2386 20.1472 24.11C19.2313 22.9362 18.4823 21.273 18.4823 18.9723C18.4823 18.6944 18.5147 18.4798 18.5759 18.3222C18.8009 15.4716 20.3741 13.0007 22.6574 11.5459L27.4167 16.3051C27.393 10.2769 27.3791 3.46697 27.4197 0.667211" fill="#4285F4"/>
<path d="M9.16754 19.079C9.16841 19.342 9.17448 19.6035 9.18627 19.8637V34.701L13.2882 30.5991C16.6454 34.7085 21.7525 37.3331 27.4729 37.3331C33.426 37.3331 38.7148 34.4916 42.058 30.091L35.3344 23.2968C34.6755 24.5154 33.7395 25.5621 32.6109 26.3526C31.437 27.2686 29.7739 28.0175 27.4732 28.0175C27.1952 28.0175 26.9807 27.9851 26.8231 27.9239C23.9725 27.6989 21.5016 26.1257 20.0467 23.8424L24.806 19.0832C18.7778 19.1068 11.9678 19.1207 9.16807 19.0801" fill="#ABABAB"/>
<path d="M3.08203 45.7695H1.5625V45.1562H3.08203C3.3763 45.1562 3.61458 45.1094 3.79688 45.0156C3.97917 44.9219 4.11198 44.7917 4.19531 44.625C4.28125 44.4583 4.32422 44.2682 4.32422 44.0547C4.32422 43.8594 4.28125 43.6758 4.19531 43.5039C4.11198 43.332 3.97917 43.194 3.79688 43.0898C3.61458 42.9831 3.3763 42.9297 3.08203 42.9297H1.73828V48H0.984375V42.3125H3.08203C3.51172 42.3125 3.875 42.3867 4.17188 42.5352C4.46875 42.6836 4.69401 42.8893 4.84766 43.1523C5.0013 43.4128 5.07812 43.7109 5.07812 44.0469C5.07812 44.4115 5.0013 44.7227 4.84766 44.9805C4.69401 45.2383 4.46875 45.4349 4.17188 45.5703C3.875 45.7031 3.51172 45.7695 3.08203 45.7695ZM6.64453 44.4375V48H5.92188V43.7734H6.625L6.64453 44.4375ZM7.96484 43.75L7.96094 44.4219C7.90104 44.4089 7.84375 44.401 7.78906 44.3984C7.73698 44.3932 7.67708 44.3906 7.60938 44.3906C7.44271 44.3906 7.29557 44.4167 7.16797 44.4688C7.04036 44.5208 6.93229 44.5938 6.84375 44.6875C6.75521 44.7812 6.6849 44.8932 6.63281 45.0234C6.58333 45.151 6.55078 45.2917 6.53516 45.4453L6.33203 45.5625C6.33203 45.3073 6.35677 45.0677 6.40625 44.8438C6.45833 44.6198 6.53776 44.4219 6.64453 44.25C6.7513 44.0755 6.88672 43.9401 7.05078 43.8438C7.21745 43.7448 7.41536 43.6953 7.64453 43.6953C7.69661 43.6953 7.75651 43.7018 7.82422 43.7148C7.89193 43.7253 7.9388 43.737 7.96484 43.75ZM9.41797 43.7734V48H8.69141V43.7734H9.41797ZM8.63672 42.6523C8.63672 42.5352 8.67188 42.4362 8.74219 42.3555C8.8151 42.2747 8.92188 42.2344 9.0625 42.2344C9.20052 42.2344 9.30599 42.2747 9.37891 42.3555C9.45443 42.4362 9.49219 42.5352 9.49219 42.6523C9.49219 42.7643 9.45443 42.8607 9.37891 42.9414C9.30599 43.0195 9.20052 43.0586 9.0625 43.0586C8.92188 43.0586 8.8151 43.0195 8.74219 42.9414C8.67188 42.8607 8.63672 42.7643 8.63672 42.6523ZM11.8633 47.3477L13.0195 43.7734H13.7578L12.2383 48H11.7539L11.8633 47.3477ZM10.8984 43.7734L12.0898 47.3672L12.1719 48H11.6875L10.1562 43.7734H10.8984ZM16.8828 47.2773V45.1016C16.8828 44.9349 16.849 44.7904 16.7812 44.668C16.7161 44.543 16.6172 44.4466 16.4844 44.3789C16.3516 44.3112 16.1875 44.2773 15.9922 44.2773C15.8099 44.2773 15.6497 44.3086 15.5117 44.3711C15.3763 44.4336 15.2695 44.5156 15.1914 44.6172C15.1159 44.7188 15.0781 44.8281 15.0781 44.9453H14.3555C14.3555 44.7943 14.3945 44.6445 14.4727 44.4961C14.5508 44.3477 14.6628 44.2135 14.8086 44.0938C14.957 43.9714 15.1341 43.875 15.3398 43.8047C15.5482 43.7318 15.7799 43.6953 16.0352 43.6953C16.3424 43.6953 16.6133 43.7474 16.8477 43.8516C17.0846 43.9557 17.2695 44.1133 17.4023 44.3242C17.5378 44.5326 17.6055 44.7943 17.6055 45.1094V47.0781C17.6055 47.2188 17.6172 47.3685 17.6406 47.5273C17.6667 47.6862 17.7044 47.8229 17.7539 47.9375V48H17C16.9635 47.9167 16.9349 47.806 16.9141 47.668C16.8932 47.5273 16.8828 47.3971 16.8828 47.2773ZM17.0078 45.4375L17.0156 45.9453H16.2852C16.0794 45.9453 15.8958 45.9622 15.7344 45.9961C15.5729 46.0273 15.4375 46.0755 15.3281 46.1406C15.2188 46.2057 15.1354 46.2878 15.0781 46.3867C15.0208 46.4831 14.9922 46.5964 14.9922 46.7266C14.9922 46.8594 15.0221 46.9805 15.082 47.0898C15.1419 47.1992 15.2318 47.2865 15.3516 47.3516C15.474 47.4141 15.6237 47.4453 15.8008 47.4453C16.0221 47.4453 16.2174 47.3984 16.3867 47.3047C16.556 47.2109 16.6901 47.0964 16.7891 46.9609C16.8906 46.8255 16.9453 46.694 16.9531 46.5664L17.2617 46.9141C17.2435 47.0234 17.194 47.1445 17.1133 47.2773C17.0326 47.4102 16.9245 47.5378 16.7891 47.6602C16.6562 47.7799 16.4974 47.8802 16.3125 47.9609C16.1302 48.0391 15.9245 48.0781 15.6953 48.0781C15.4089 48.0781 15.1576 48.0221 14.9414 47.9102C14.7279 47.7982 14.5612 47.6484 14.4414 47.4609C14.3242 47.2708 14.2656 47.0586 14.2656 46.8242C14.2656 46.5977 14.3099 46.3984 14.3984 46.2266C14.487 46.0521 14.6146 45.9076 14.7812 45.793C14.9479 45.6758 15.1484 45.5872 15.3828 45.5273C15.6172 45.4674 15.8789 45.4375 16.168 45.4375H17.0078ZM20.4336 47.4844C20.6055 47.4844 20.7643 47.4492 20.9102 47.3789C21.056 47.3086 21.1758 47.2122 21.2695 47.0898C21.3633 46.9648 21.4167 46.8229 21.4297 46.6641H22.1172C22.1042 46.9141 22.0195 47.1471 21.8633 47.3633C21.7096 47.5768 21.5078 47.75 21.2578 47.8828C21.0078 48.013 20.7331 48.0781 20.4336 48.0781C20.1159 48.0781 19.8385 48.0221 19.6016 47.9102C19.3672 47.7982 19.1719 47.6445 19.0156 47.4492C18.862 47.2539 18.7461 47.0299 18.668 46.7773C18.5924 46.5221 18.5547 46.2526 18.5547 45.9688V45.8047C18.5547 45.5208 18.5924 45.2526 18.668 45C18.7461 44.7448 18.862 44.5195 19.0156 44.3242C19.1719 44.1289 19.3672 43.9753 19.6016 43.8633C19.8385 43.7513 20.1159 43.6953 20.4336 43.6953C20.7643 43.6953 21.0534 43.763 21.3008 43.8984C21.5482 44.0312 21.7422 44.2135 21.8828 44.4453C22.026 44.6745 22.1042 44.9349 22.1172 45.2266H21.4297C21.4167 45.0521 21.3672 44.8945 21.2812 44.7539C21.1979 44.6133 21.0833 44.5013 20.9375 44.418C20.7943 44.332 20.6263 44.2891 20.4336 44.2891C20.2122 44.2891 20.026 44.3333 19.875 44.4219C19.7266 44.5078 19.6081 44.625 19.5195 44.7734C19.4336 44.9193 19.3711 45.082 19.332 45.2617C19.2956 45.4388 19.2773 45.6198 19.2773 45.8047V45.9688C19.2773 46.1536 19.2956 46.3359 19.332 46.5156C19.3685 46.6953 19.4297 46.8581 19.5156 47.0039C19.6042 47.1497 19.7227 47.2669 19.8711 47.3555C20.0221 47.4414 20.2096 47.4844 20.4336 47.4844ZM24.1172 47.5625L25.293 43.7734H26.0664L24.3711 48.6523C24.332 48.7565 24.2799 48.8685 24.2148 48.9883C24.1523 49.1107 24.0716 49.2266 23.9727 49.3359C23.8737 49.4453 23.7539 49.5339 23.6133 49.6016C23.4753 49.6719 23.3099 49.707 23.1172 49.707C23.0599 49.707 22.987 49.6992 22.8984 49.6836C22.8099 49.668 22.7474 49.6549 22.7109 49.6445L22.707 49.0586C22.7279 49.0612 22.7604 49.0638 22.8047 49.0664C22.8516 49.0716 22.8841 49.0742 22.9023 49.0742C23.0664 49.0742 23.2057 49.0521 23.3203 49.0078C23.4349 48.9661 23.5312 48.8945 23.6094 48.793C23.6901 48.694 23.7591 48.5573 23.8164 48.3828L24.1172 47.5625ZM23.2539 43.7734L24.3516 47.0547L24.5391 47.8164L24.0195 48.082L22.4648 43.7734H23.2539ZM30.207 45.2852V45.8789H28.3008V45.2852H30.207ZM34.9531 42.3125V48H34.2109V42.3125H34.9531ZM36.7812 42.3125V42.9297H32.3867V42.3125H36.7812ZM38.8789 48.0781C38.5846 48.0781 38.3177 48.0286 38.0781 47.9297C37.8411 47.8281 37.6367 47.6862 37.4648 47.5039C37.2956 47.3216 37.1654 47.1055 37.0742 46.8555C36.9831 46.6055 36.9375 46.332 36.9375 46.0352V45.8711C36.9375 45.5273 36.9883 45.2214 37.0898 44.9531C37.1914 44.6823 37.3294 44.4531 37.5039 44.2656C37.6784 44.0781 37.8763 43.9362 38.0977 43.8398C38.319 43.7435 38.5482 43.6953 38.7852 43.6953C39.0872 43.6953 39.3477 43.7474 39.5664 43.8516C39.7878 43.9557 39.9688 44.1016 40.1094 44.2891C40.25 44.474 40.3542 44.6927 40.4219 44.9453C40.4896 45.1953 40.5234 45.4688 40.5234 45.7656V46.0898H37.3672V45.5H39.8008V45.4453C39.7904 45.2578 39.7513 45.0755 39.6836 44.8984C39.6185 44.7214 39.5143 44.5755 39.3711 44.4609C39.2279 44.3464 39.0326 44.2891 38.7852 44.2891C38.6211 44.2891 38.4701 44.3242 38.332 44.3945C38.194 44.4622 38.0755 44.5638 37.9766 44.6992C37.8776 44.8346 37.8008 45 37.7461 45.1953C37.6914 45.3906 37.6641 45.6159 37.6641 45.8711V46.0352C37.6641 46.2357 37.6914 46.4245 37.7461 46.6016C37.8034 46.776 37.8854 46.9297 37.9922 47.0625C38.1016 47.1953 38.2331 47.2995 38.3867 47.375C38.543 47.4505 38.7201 47.4883 38.918 47.4883C39.1732 47.4883 39.3893 47.4362 39.5664 47.332C39.7435 47.2279 39.8984 47.0885 40.0312 46.9141L40.4688 47.2617C40.3776 47.3997 40.2617 47.5312 40.1211 47.6562C39.9805 47.7812 39.8073 47.8828 39.6016 47.9609C39.3984 48.0391 39.1576 48.0781 38.8789 48.0781ZM42.0898 44.4375V48H41.3672V43.7734H42.0703L42.0898 44.4375ZM43.4102 43.75L43.4062 44.4219C43.3464 44.4089 43.2891 44.401 43.2344 44.3984C43.1823 44.3932 43.1224 44.3906 43.0547 44.3906C42.888 44.3906 42.7409 44.4167 42.6133 44.4688C42.4857 44.5208 42.3776 44.5938 42.2891 44.6875C42.2005 44.7812 42.1302 44.8932 42.0781 45.0234C42.0286 45.151 41.9961 45.2917 41.9805 45.4453L41.7773 45.5625C41.7773 45.3073 41.8021 45.0677 41.8516 44.8438C41.9036 44.6198 41.9831 44.4219 42.0898 44.25C42.1966 44.0755 42.332 43.9401 42.4961 43.8438C42.6628 43.7448 42.8607 43.6953 43.0898 43.6953C43.1419 43.6953 43.2018 43.7018 43.2695 43.7148C43.3372 43.7253 43.3841 43.737 43.4102 43.75ZM44.7969 44.6133V48H44.0703V43.7734H44.7578L44.7969 44.6133ZM44.6484 45.7266L44.3125 45.7148C44.3151 45.4258 44.3529 45.1589 44.4258 44.9141C44.4987 44.6667 44.6068 44.4518 44.75 44.2695C44.8932 44.0872 45.0716 43.9466 45.2852 43.8477C45.4987 43.7461 45.7461 43.6953 46.0273 43.6953C46.2253 43.6953 46.4076 43.724 46.5742 43.7812C46.7409 43.8359 46.8854 43.9232 47.0078 44.043C47.1302 44.1628 47.2253 44.3164 47.293 44.5039C47.3607 44.6914 47.3945 44.918 47.3945 45.1836V48H46.6719V45.2188C46.6719 44.9974 46.6341 44.8203 46.5586 44.6875C46.4857 44.5547 46.3815 44.4583 46.2461 44.3984C46.1107 44.3359 45.9518 44.3047 45.7695 44.3047C45.556 44.3047 45.3776 44.3424 45.2344 44.418C45.0911 44.4935 44.9766 44.5977 44.8906 44.7305C44.8047 44.8633 44.7422 45.0156 44.7031 45.1875C44.6667 45.3568 44.6484 45.5365 44.6484 45.7266ZM47.3867 45.3281L46.9023 45.4766C46.9049 45.2448 46.9427 45.0221 47.0156 44.8086C47.0911 44.5951 47.1992 44.4049 47.3398 44.2383C47.4831 44.0716 47.6589 43.9401 47.8672 43.8438C48.0755 43.7448 48.3138 43.6953 48.582 43.6953C48.8086 43.6953 49.0091 43.7253 49.1836 43.7852C49.3607 43.8451 49.5091 43.9375 49.6289 44.0625C49.7513 44.1849 49.8438 44.3424 49.9062 44.5352C49.9688 44.7279 50 44.957 50 45.2227V48H49.2734V45.2148C49.2734 44.9779 49.2357 44.7943 49.1602 44.6641C49.0872 44.5312 48.9831 44.4388 48.8477 44.3867C48.7148 44.332 48.556 44.3047 48.3711 44.3047C48.2122 44.3047 48.0716 44.332 47.9492 44.3867C47.8268 44.4414 47.724 44.5169 47.6406 44.6133C47.5573 44.707 47.4935 44.8151 47.4492 44.9375C47.4076 45.0599 47.3867 45.1901 47.3867 45.3281ZM53.5547 46.8789C53.5547 46.7747 53.5312 46.6784 53.4844 46.5898C53.4401 46.4987 53.3477 46.4167 53.207 46.3438C53.069 46.2682 52.8607 46.2031 52.582 46.1484C52.3477 46.099 52.1354 46.0404 51.9453 45.9727C51.7578 45.9049 51.5977 45.8229 51.4648 45.7266C51.3346 45.6302 51.2344 45.5169 51.1641 45.3867C51.0938 45.2565 51.0586 45.1042 51.0586 44.9297C51.0586 44.763 51.0951 44.6055 51.168 44.457C51.2435 44.3086 51.349 44.1771 51.4844 44.0625C51.6224 43.9479 51.7878 43.8581 51.9805 43.793C52.1732 43.7279 52.388 43.6953 52.625 43.6953C52.9635 43.6953 53.2526 43.7552 53.4922 43.875C53.7318 43.9948 53.9154 44.1549 54.043 44.3555C54.1706 44.5534 54.2344 44.7734 54.2344 45.0156H53.5117C53.5117 44.8984 53.4766 44.7852 53.4062 44.6758C53.3385 44.5638 53.2383 44.4714 53.1055 44.3984C52.9753 44.3255 52.8151 44.2891 52.625 44.2891C52.4245 44.2891 52.2617 44.3203 52.1367 44.3828C52.0143 44.4427 51.9245 44.5195 51.8672 44.6133C51.8125 44.707 51.7852 44.806 51.7852 44.9102C51.7852 44.9883 51.7982 45.0586 51.8242 45.1211C51.8529 45.181 51.9023 45.237 51.9727 45.2891C52.043 45.3385 52.1419 45.3854 52.2695 45.4297C52.3971 45.474 52.5599 45.5182 52.7578 45.5625C53.1042 45.6406 53.3893 45.7344 53.6133 45.8438C53.8372 45.9531 54.0039 46.0872 54.1133 46.2461C54.2227 46.4049 54.2773 46.5977 54.2773 46.8242C54.2773 47.0091 54.2383 47.1784 54.1602 47.332C54.0846 47.4857 53.974 47.6185 53.8281 47.7305C53.6849 47.8398 53.513 47.9258 53.3125 47.9883C53.1146 48.0482 52.8919 48.0781 52.6445 48.0781C52.2721 48.0781 51.957 48.0117 51.6992 47.8789C51.4414 47.7461 51.2461 47.5742 51.1133 47.3633C50.9805 47.1523 50.9141 46.9297 50.9141 46.6953H51.6406C51.651 46.8932 51.7083 47.0508 51.8125 47.168C51.9167 47.2826 52.0443 47.3646 52.1953 47.4141C52.3464 47.4609 52.4961 47.4844 52.6445 47.4844C52.8424 47.4844 53.0078 47.4583 53.1406 47.4062C53.276 47.3542 53.3789 47.2826 53.4492 47.1914C53.5195 47.1003 53.5547 46.9961 53.5547 46.8789Z" fill="#555555"/>
</svg>
