<svg width="454" height="453" viewBox="0 0 454 453" fill="none" xmlns="http://www.w3.org/2000/svg">
<path d="M453.143 198.355L453.734 249.383C453.734 250.38 452.956 251.22 451.929 251.22L413.248 251.656C412.346 251.656 411.63 252.341 411.475 253.213C409.576 266.414 406.34 279.21 401.828 291.383C401.517 292.224 401.828 293.158 402.637 293.594L436.308 312.492C437.179 312.99 437.49 314.08 436.992 314.983L412.035 359.473C411.537 360.345 410.448 360.656 409.545 360.158L375.906 341.26C375.128 340.824 374.163 341.011 373.603 341.727C365.419 352.126 356.145 361.653 345.969 370.121C345.284 370.682 345.098 371.647 345.565 372.425L365.201 405.583C365.699 406.455 365.419 407.575 364.578 408.074L320.7 434.102C319.829 434.6 318.709 434.32 318.211 433.479L298.637 400.446C298.17 399.667 297.237 399.356 296.428 399.698C284.322 404.555 271.595 408.167 258.369 410.409C257.498 410.564 256.844 411.312 256.875 412.214L257.311 450.571C257.311 451.568 256.533 452.409 255.506 452.409L204.502 453C203.506 453 202.666 452.222 202.666 451.194L202.23 412.962C202.23 412.059 201.546 411.312 200.674 411.187C187.386 409.319 174.534 406.05 162.273 401.535C161.433 401.224 160.5 401.535 160.064 402.345L141.424 435.534C140.926 436.406 139.837 436.717 138.934 436.219L124.682 428.217C124.682 428.217 124.557 428.155 124.464 428.124C123.748 427.844 123.063 427.532 122.379 427.159L110.149 420.309C109.433 419.904 108.78 419.438 108.157 418.939L94.4338 411.218C93.5625 410.72 93.2513 409.63 93.7492 408.727L112.358 375.57C112.794 374.791 112.607 373.826 111.892 373.266C101.404 365.015 91.8198 355.675 83.2932 345.401C82.7331 344.716 81.7684 344.529 80.9904 344.996L48.3465 364.362C47.4752 364.86 46.3549 364.579 45.857 363.739L38.2017 350.818C38.2017 350.818 38.1083 350.662 38.015 350.569C37.3304 349.822 36.708 349.012 36.179 348.109L28.8349 335.718C28.2747 334.753 27.8079 333.757 27.4656 332.698L19.8414 319.84C19.3435 318.968 19.6236 317.847 20.4638 317.349L53.0144 298.046C53.7924 297.579 54.1035 296.645 53.7612 295.835C48.8755 283.631 45.2657 270.804 43.0563 257.478C42.9007 256.607 42.1538 255.953 41.2514 255.953L3.37948 256.389C2.38367 256.389 1.54346 255.61 1.54346 254.583L1.38788 241.725C1.10781 240.697 0.952221 239.638 0.952221 238.518L0.734375 219.619C0.734375 218.498 0.858817 217.44 1.10777 216.413L0.952221 203.554C0.952221 202.558 1.73017 201.717 2.7571 201.717L40.629 201.281C41.5314 201.281 42.2472 200.596 42.4028 199.725C44.301 186.368 47.5997 173.479 52.2053 161.181C52.5165 160.34 52.2053 159.406 51.3962 158.97L18.41 140.446C17.5387 139.948 17.2274 138.858 17.7253 137.955L23.9492 126.871C23.9492 126.871 24.0426 126.684 24.0737 126.591C24.3537 125.688 24.696 124.816 25.1939 123.976L33.2537 109.623C33.7828 108.689 34.4052 107.848 35.0898 107.07L42.714 93.4955C43.2119 92.6238 44.3011 92.3125 45.2035 92.8106L78.2831 111.398C79.061 111.833 80.0257 111.647 80.5858 110.931C88.8635 100.47 98.2303 90.9114 108.531 82.4118C109.215 81.8514 109.402 80.8551 108.935 80.1078L89.5481 47.3861C89.0502 46.5143 89.3303 45.3934 90.1705 44.8953L101.467 38.2014C101.467 38.2014 101.591 38.108 101.653 38.0769C102.151 37.641 102.711 37.2674 103.303 36.8938L117.742 28.3009C118.302 27.9584 118.862 27.6471 119.485 27.4291C119.609 27.3669 119.765 27.3356 119.889 27.3045L134.079 18.8984C134.951 18.4002 136.071 18.6803 136.569 19.5209L155.987 52.2739C156.454 53.0523 157.388 53.3636 158.197 53.0212C170.364 48.1954 183.154 44.6461 196.411 42.4667C197.282 42.311 197.936 41.5638 197.936 40.6609L197.5 2.42846C197.5 1.43217 198.278 0.591475 199.305 0.591475L250.309 0C251.305 0 252.145 0.77834 252.145 1.80576L252.581 40.1629C252.581 41.0658 253.234 41.7819 254.137 41.9375C267.394 43.8679 280.183 47.1681 292.382 51.7448C293.222 52.0561 294.156 51.7449 294.592 50.9354L313.356 17.4662C313.854 16.5944 314.943 16.2831 315.846 16.7813L360.315 41.7507C361.186 42.2489 361.498 43.3386 361 44.2415L342.141 77.8351C341.706 78.6135 341.893 79.5785 342.608 80.1389C353.002 88.3583 362.462 97.6675 370.895 107.879C371.456 108.564 372.451 108.751 373.198 108.284L406.402 88.6075C407.274 88.1094 408.394 88.3897 408.892 89.2303L434.907 133.129C435.405 134.001 435.125 135.122 434.285 135.62L401.081 155.297C400.303 155.764 399.992 156.697 400.334 157.507C405.126 169.587 408.674 182.29 410.883 195.459C411.039 196.331 411.786 196.985 412.688 196.985L451.369 196.549C452.365 196.549 453.205 197.327 453.205 198.355H453.143ZM377.462 219.806C373.976 140.041 307.63 76.1849 227.81 75.7802C141.766 75.3443 72.7128 146.859 76.4782 233.163C79.9635 312.928 146.309 376.784 226.13 377.189C312.174 377.625 381.227 306.11 377.462 219.806Z" fill="#0061AD"/>
</svg>
