<svg width="482" height="150" viewBox="0 0 482 150" fill="none" xmlns="http://www.w3.org/2000/svg">
<path fill-rule="evenodd" clip-rule="evenodd" d="M161.971 38.4182H147.838L123.55 69.4932V38.4182H110.941V109.671H123.55V76.9369L147.725 109.674H164.441L135.276 72.8682L163.441 38.4213H161.974L161.971 38.4182ZM192.528 48.6119C201.802 48.6119 205.937 51.7807 205.937 58.8869C205.937 65.6057 200.641 69.7807 192.116 69.7807L187.357 69.5994V48.7963L192.531 48.6119M175.401 38.4213L174.751 38.4588V109.674H187.357V80.1994L208.438 109.674H224.294L205.128 84.2338L201.25 79.2963L199.969 77.6807C211.585 75.9494 219.064 68.2275 219.064 57.6432C219.064 44.6119 210.655 38.0057 194.077 38.0057C185.718 38.0057 180.132 38.1307 175.401 38.4213ZM243.517 73.4775C243.517 56.3744 253.403 48.715 263.205 48.715C275.901 48.715 282.893 57.8057 282.893 74.3057C282.893 91.4619 272.579 99.2744 262.999 99.2744C250.433 99.2744 243.517 90.1119 243.517 73.4775ZM230.187 74.8213C230.187 97.9619 241.55 110.712 262.174 110.712C282.221 110.712 296.22 95.2682 296.22 73.1682C296.22 50.4275 284.56 37.3838 264.235 37.3838C244.188 37.3838 230.187 52.7807 230.187 74.8213ZM366.84 38.4182H355.233V59.8182C355.233 69.1088 355.483 81.6932 355.808 89.8619C353.607 85.5244 351.336 81.0932 348.807 76.8463L325.644 38.4182H309.837V109.671H322.14V85.4838C322.14 76.6869 321.984 65.2494 321.684 57.89C323.576 61.8968 325.67 65.805 327.958 69.5994L351.936 109.671H367.536V38.4182H366.84ZM399.943 78.315H424.13V67.7057H399.939V49.2338H425.363V38.4182H387.327V109.671H425.363V98.6494H399.939L399.943 78.315Z" fill="#FCFCFC"/>
<path fill-rule="evenodd" clip-rule="evenodd" d="M438.355 58.4721C438.355 71.4346 447.945 75.2221 456.401 78.5658C463.011 81.1752 468.723 83.4314 468.723 89.5221C468.723 98.6064 459.561 99.5846 455.623 99.5846C451.124 99.5846 445.694 98.6158 441.453 97.0408L440.576 96.7158L439.867 108.891L440.423 109.031C444.622 110.116 449.656 110.713 454.593 110.713C470.955 110.713 481.947 101.531 481.947 87.8627C481.947 75.2627 472.31 71.3596 463.811 67.9189C457.247 65.2627 451.583 62.9689 451.583 57.2314C451.583 51.5127 456.207 48.0971 463.961 48.0971C467.895 48.0971 472.282 48.7846 476.317 50.0346L477.16 50.2939L477.869 38.7439L477.253 38.6377C472.273 37.7846 468.245 37.3877 464.582 37.3877C448.651 37.3846 438.355 45.6627 438.355 58.4721Z" fill="#FCFCFC"/>
<path fill-rule="evenodd" clip-rule="evenodd" d="M7.19144 36.0218L0.171884 40.8343C0.128529 40.8637 0.0915337 40.9016 0.0631013 40.9456C0.0346689 40.9896 0.0153811 41.0389 0.00638681 41.0906C-0.0122177 41.1939 0.0101878 41.3004 0.0688384 41.3874C10.467 56.3749 15.9565 74.0499 15.9565 92.4906C15.9565 110.853 10.467 128.494 0.0750836 143.509C0.0175379 143.596 -0.00480771 143.701 0.012632 143.803C0.0216389 143.854 0.0406267 143.902 0.0684974 143.946C0.0963681 143.989 0.132569 144.027 0.175006 144.056L7.19144 148.962C7.23774 148.995 7.29049 149.017 7.34605 149.027C7.40161 149.036 7.45867 149.034 7.51329 149.02C7.5679 149.006 7.61878 148.98 7.66241 148.944C7.70604 148.908 7.74138 148.863 7.766 148.812L35.4008 92.6687C35.4283 92.6139 35.4426 92.5534 35.4426 92.4921C35.4426 92.4308 35.4283 92.3704 35.4008 92.3156L7.766 36.1718C7.74152 36.1219 7.70651 36.0779 7.66338 36.0428C7.62025 36.0077 7.57004 35.9824 7.51619 35.9687C7.46156 35.9525 7.40398 35.9488 7.34774 35.958C7.2915 35.9672 7.23807 35.989 7.19144 36.0218ZM68.291 0.00305931C68.2355 0.0112891 68.1823 0.0311252 68.135 0.0612766C68.0876 0.091428 68.0472 0.131219 68.0162 0.178059L33.7833 52.5218C33.7501 52.5719 33.7289 52.6289 33.7213 52.6886C33.7137 52.7482 33.72 52.8088 33.7396 52.8656L54.358 111.978C54.3761 112.032 54.4059 112.081 54.4453 112.122C54.4847 112.164 54.5328 112.195 54.586 112.216C54.6385 112.237 54.695 112.247 54.7516 112.244C54.8083 112.241 54.8636 112.226 54.9138 112.2L62.4705 108.191C62.5168 108.167 62.5578 108.135 62.5911 108.095C62.6244 108.055 62.6492 108.009 62.6641 107.959C62.6797 107.909 62.6853 107.857 62.6805 107.805C62.6757 107.753 62.6605 107.702 62.636 107.656C54.1527 91.5204 50.8105 73.1716 53.059 55.0781C55.2948 36.7687 62.8889 19.8999 75.0233 6.29681C75.0931 6.2179 75.129 6.11458 75.1232 6.00931C75.116 5.90363 75.0678 5.80495 74.9889 5.73431L68.6032 0.0999343C68.5611 0.0625033 68.5114 0.0345018 68.4576 0.017797C68.4037 0.00109213 68.3469 -0.0039321 68.291 0.00305931Z" fill="#FCFCFC"/>
</svg>
