<svg width="194" height="48" viewBox="0 0 194 48" fill="none" xmlns="http://www.w3.org/2000/svg">
<g clip-path="url(#clip0_708_12104)">
<path fill-rule="evenodd" clip-rule="evenodd" d="M193.5 21.8658V22.7991C193.5 22.7991 192.471 23.1991 192.471 24.5324V45.5991C192.471 46.3991 191.828 46.9324 191.184 46.9324H187.196L178.446 32.5324C178.446 32.5324 178.575 33.7324 178.575 35.1991V46.9324H173.686V21.8658H176.902C178.575 21.8658 179.733 22.5324 180.505 23.8658L187.839 35.8658C187.839 35.8658 187.582 35.0658 187.582 33.1991V21.8658H193.5ZM99.831 21.8658V45.5991C99.831 46.3991 99.1876 46.9324 98.5443 46.9324H94.427L85.6776 32.5324C85.6776 32.5324 85.8063 33.7324 85.8063 35.1991V46.9324H80.917V21.8658H84.1336C85.8063 21.8658 86.9643 22.5324 87.7363 23.8658L95.0703 35.8658C95.0703 35.8658 94.813 35.0658 94.813 33.1991V21.8658C94.9416 21.8658 99.831 21.8658 99.831 21.8658ZM39.3576 21.8658H32.7956V31.4658H27.1343V21.8658H19.543V22.7991C19.543 22.7991 20.5723 23.1991 20.5723 24.5324V46.9324H27.1343V36.1324H32.7956V46.9324H39.3576V21.8658ZM60.5876 21.8658H46.0483V44.6658C46.0483 45.9991 47.2063 46.9324 48.493 46.9324H60.5876C61.3596 46.9324 61.8743 46.2658 61.8743 45.5991V42.3991H53.511C52.9963 42.3991 52.4816 41.9991 52.4816 41.3324V35.9991H59.9443V31.4658H52.4816V26.3991H61.7456V23.1991C61.8743 22.5324 61.231 21.8658 60.5876 21.8658ZM74.355 21.8658H67.793V45.5991C67.793 46.3991 68.4363 46.9324 69.0796 46.9324H74.355V21.8658ZM166.866 21.8658H152.327V44.6658C152.327 45.8658 153.485 46.9324 154.772 46.9324H166.866C167.638 46.9324 168.153 46.2658 168.153 45.5991V42.3991H159.79C159.275 42.3991 158.76 41.9991 158.76 41.3324V35.9991H166.223V31.4658H158.76V26.3991H168.024V23.1991C168.153 22.5324 167.51 21.8658 166.866 21.8658ZM120.932 21.8658H106.393V44.6658C106.393 45.8658 107.551 46.9324 108.838 46.9324H120.932C121.704 46.9324 122.219 46.2658 122.219 45.5991V42.3991H113.856C113.341 42.3991 112.826 41.9991 112.826 41.3324V35.9991H120.289V31.4658H112.826V26.3991H122.09V23.1991C122.219 22.5324 121.576 21.8658 120.932 21.8658ZM148.467 21.8658H143.706C142.548 21.8658 141.648 22.1324 140.747 23.1991L134.056 31.0658V21.7324H127.494V45.4658C127.494 46.2658 128.138 46.7991 128.781 46.7991H134.056V35.4658L139.846 44.7991C140.747 46.1324 141.519 46.9324 143.578 46.9324H148.982L139.846 32.1324L148.467 21.8658Z" fill="#1A1A1A"/>
<path fill-rule="evenodd" clip-rule="evenodd" d="M6.93366 31.2C6.805 31.3333 6.54766 31.3333 6.419 31.0667C6.29033 30.9333 6.29033 30.8 6.419 30.6667C6.54766 30.1333 9.893 19.3333 9.893 19.3333L0.628997 12.4C0.371664 12.1333 0.500331 11.6 0.886331 11.6C1.401 11.6 12.209 11.6 12.209 11.6C12.209 11.6 15.5543 0.8 15.683 0.266667C15.8117 0.133333 15.9403 0 16.1977 0C16.3263 0 16.455 0.133333 16.455 0.266667C16.5837 0.8 19.929 11.6 19.929 11.6C19.929 11.6 30.6083 11.6 31.2517 11.6C31.6377 11.6 31.7663 12.1333 31.509 12.4L26.105 16.5333H19.6717L17.7417 10.1333L15.8117 16.5333H9.37833L14.6537 20.5333L12.7237 26.9333L6.93366 31.2Z" fill="#202020"/>
</g>
<defs>
<clipPath id="clip0_708_12104">
<rect width="193" height="48" fill="white" transform="translate(0.5)"/>
</clipPath>
</defs>
</svg>
