<svg width="25" height="18" viewBox="0 0 25 18" fill="none" xmlns="http://www.w3.org/2000/svg">
<g clip-path="url(#clip0_708_13821)">
<path d="M0.5 0H24.5V18H0.5V0Z" fill="#00ABC2"/>
<path d="M13.4658 9.98256C14.8038 9.98256 15.8886 8.89784 15.8886 7.55976C15.8886 6.22169 14.8038 5.13696 13.4658 5.13696C12.1277 5.13696 11.043 6.22169 11.043 7.55976C11.043 8.89784 12.1277 9.98256 13.4658 9.98256Z" fill="#FFEC2D"/>
<path d="M13.4519 4.80768C13.5959 4.80588 13.6499 4.71588 13.6499 4.60788C13.6499 4.46388 13.4519 3.77808 13.4519 3.77808C13.4519 3.77808 13.2539 4.46388 13.2539 4.60788C13.2539 4.71588 13.3079 4.80768 13.4519 4.80768Z" fill="#FFEC2D"/>
<path d="M16.2087 7.56006C16.2105 7.70406 16.3005 7.75806 16.4085 7.75806C16.5525 7.75806 17.2383 7.56006 17.2383 7.56006C17.2383 7.56006 16.5525 7.36206 16.4085 7.36206C16.3005 7.36206 16.2087 7.41606 16.2087 7.56006Z" fill="#FFEC2D"/>
<path d="M13.4543 10.312C13.3103 10.3138 13.2563 10.4038 13.2563 10.5118C13.2563 10.6558 13.4543 11.3416 13.4543 11.3416C13.4543 11.3416 13.6523 10.6558 13.6523 10.5118C13.6523 10.4038 13.5983 10.312 13.4543 10.312Z" fill="#FFEC2D"/>
<path d="M10.7015 7.55993C10.6997 7.41593 10.6097 7.36193 10.5017 7.36193C10.3577 7.36193 9.67188 7.55993 9.67188 7.55993C9.67188 7.55993 10.3577 7.75793 10.5017 7.75793C10.6097 7.75793 10.7015 7.70393 10.7015 7.55993Z" fill="#FFEC2D"/>
<path d="M14.5076 5.01758C14.6413 5.07104 14.7256 5.00856 14.7669 4.90879C14.8221 4.77575 14.9016 4.06639 14.9016 4.06639C14.9016 4.06639 14.4563 4.62417 14.4012 4.7572C14.3598 4.85698 14.3746 4.96246 14.5076 5.01758Z" fill="#FFEC2D"/>
<path d="M15.9965 8.61341C15.943 8.74712 16.0055 8.83145 16.1053 8.87278C16.2383 8.9279 16.9476 9.00748 16.9476 9.00748C16.9476 9.00748 16.3899 8.5621 16.2568 8.50699C16.1571 8.46565 16.0516 8.4804 15.9965 8.61341Z" fill="#FFEC2D"/>
<path d="M12.4026 10.1028C12.2689 10.0493 12.1845 10.1118 12.1432 10.2116C12.0881 10.3446 12.0085 11.054 12.0085 11.054C12.0085 11.054 12.4539 10.4962 12.509 10.3632C12.5503 10.2634 12.5356 10.1579 12.4026 10.1028Z" fill="#FFEC2D"/>
<path d="M10.9098 6.50695C10.9632 6.37324 10.9008 6.28891 10.801 6.24758C10.668 6.19246 9.9586 6.11288 9.9586 6.11288C9.9586 6.11288 10.5164 6.55826 10.6494 6.61337C10.7492 6.65471 10.8547 6.63996 10.9098 6.50695Z" fill="#FFEC2D"/>
<path d="M15.4003 5.61389C15.5033 5.71444 15.6052 5.68899 15.6815 5.61262C15.7834 5.5108 16.1283 4.88586 16.1283 4.88586C16.1283 4.88586 15.5033 5.23078 15.4015 5.33261C15.3252 5.40897 15.2984 5.51207 15.4003 5.61389Z" fill="#FFEC2D"/>
<path d="M15.4015 9.50596C15.3009 9.60906 15.3264 9.71088 15.4028 9.78725C15.5046 9.88907 16.1295 10.234 16.1295 10.234C16.1295 10.234 15.7846 9.60906 15.6828 9.50724C15.6064 9.43087 15.5033 9.40414 15.4015 9.50596Z" fill="#FFEC2D"/>
<path d="M11.506 9.50622C11.4029 9.40567 11.3011 9.43113 11.2247 9.5075C11.1229 9.60932 10.778 10.2343 10.778 10.2343C10.778 10.2343 11.4029 9.88933 11.5047 9.78751C11.5811 9.71114 11.6078 9.60805 11.506 9.50622Z" fill="#FFEC2D"/>
<path d="M11.5087 5.61318C11.6092 5.51008 11.5838 5.40826 11.5074 5.33189C11.4056 5.23007 10.7806 4.88514 10.7806 4.88514C10.7806 4.88514 11.1256 5.51008 11.2274 5.6119C11.3037 5.68827 11.4068 5.715 11.5087 5.61318Z" fill="#FFEC2D"/>
<path d="M15.9957 6.50702C16.0525 6.63935 16.1563 6.65479 16.2561 6.61345C16.3891 6.55833 16.9469 6.11295 16.9469 6.11295C16.9469 6.11295 16.2375 6.19254 16.1045 6.24765C16.0047 6.28899 15.9406 6.37401 15.9957 6.50702Z" fill="#FFEC2D"/>
<path d="M14.509 10.1029C14.3766 10.1597 14.3612 10.2635 14.4025 10.3633C14.4577 10.4963 14.903 11.0541 14.903 11.0541C14.903 11.0541 14.8235 10.3447 14.7683 10.2117C14.727 10.1119 14.642 10.0478 14.509 10.1029Z" fill="#FFEC2D"/>
<path d="M10.9106 8.61334C10.8538 8.48101 10.75 8.46558 10.6502 8.50691C10.5171 8.56203 9.95936 9.00741 9.95936 9.00741C9.95936 9.00741 10.6687 8.92782 10.8018 8.87271C10.9015 8.83137 10.9657 8.74636 10.9106 8.61334Z" fill="#FFEC2D"/>
<path d="M12.4012 5.01736C12.5335 4.96058 12.549 4.85676 12.5076 4.75699C12.4525 4.62395 12.0071 4.06618 12.0071 4.06618C12.0071 4.06618 12.0867 4.77554 12.1418 4.90857C12.1832 5.00834 12.2682 5.07248 12.4012 5.01736Z" fill="#FFEC2D"/>
<path d="M14.0077 4.86063C14.1492 4.88713 14.2197 4.80948 14.2409 4.70359C14.2692 4.5624 14.2097 3.85112 14.2097 3.85112C14.2097 3.85112 13.8811 4.48468 13.8528 4.62587C13.8317 4.73176 13.8666 4.83237 14.0077 4.86063Z" fill="#FFEC2D"/>
<path d="M16.1665 8.09876C16.14 8.24024 16.2176 8.31082 16.3235 8.332C16.4647 8.36025 17.176 8.30074 17.176 8.30074C17.176 8.30074 16.5424 7.97216 16.4012 7.94391C16.2953 7.92272 16.1947 7.95764 16.1665 8.09876Z" fill="#FFEC2D"/>
<path d="M12.9298 10.2585C12.7883 10.232 12.7178 10.3097 12.6966 10.4156C12.6683 10.5567 12.7278 11.268 12.7278 11.268C12.7278 11.268 13.0564 10.6345 13.0847 10.4933C13.1058 10.3874 13.0709 10.2868 12.9298 10.2585Z" fill="#FFEC2D"/>
<path d="M10.7671 7.02038C10.7936 6.8789 10.716 6.80832 10.6101 6.78714C10.4689 6.75889 9.75761 6.8184 9.75761 6.8184C9.75761 6.8184 10.3912 7.14698 10.5324 7.17523C10.6383 7.19642 10.7389 7.1615 10.7671 7.02038Z" fill="#FFEC2D"/>
<path d="M14.9978 5.27317C15.1185 5.35182 15.2134 5.30709 15.2735 5.21736C15.3536 5.09771 15.5707 4.41769 15.5707 4.41769C15.5707 4.41769 15.0247 4.87732 14.9445 4.99696C14.8844 5.0867 14.8782 5.19303 14.9978 5.27317Z" fill="#FFEC2D"/>
<path d="M15.7531 9.09086C15.6744 9.21148 15.7192 9.30641 15.8089 9.3665C15.9285 9.44663 16.6086 9.66374 16.6086 9.66374C16.6086 9.66374 16.1489 9.11768 16.0293 9.03756C15.9395 8.97746 15.8332 8.97124 15.7531 9.09086Z" fill="#FFEC2D"/>
<path d="M11.9358 9.84719C11.8151 9.76854 11.7202 9.81327 11.6601 9.903C11.58 10.0226 11.3629 10.7027 11.3629 10.7027C11.3629 10.7027 11.9089 10.243 11.9891 10.1234C12.0491 10.0337 12.0554 9.92733 11.9358 9.84719Z" fill="#FFEC2D"/>
<path d="M11.1805 6.02889C11.2592 5.90827 11.2144 5.81334 11.1247 5.75325C11.0051 5.67312 10.325 5.45601 10.325 5.45601C10.325 5.45601 10.7847 6.00207 10.9043 6.0822C10.994 6.14229 11.1004 6.14851 11.1805 6.02889Z" fill="#FFEC2D"/>
<path d="M15.757 6.03305C15.8384 6.1519 15.9432 6.14692 16.0331 6.08701C16.1529 6.00713 16.6137 5.46191 16.6137 5.46191C16.6137 5.46191 15.9333 5.67754 15.8135 5.75742C15.7236 5.81733 15.6772 5.9132 15.757 6.03305Z" fill="#FFEC2D"/>
<path d="M14.9945 9.84955C14.8757 9.9309 14.8807 10.0357 14.9406 10.1256C15.0205 10.2454 15.5657 10.7062 15.5657 10.7062C15.5657 10.7062 15.35 10.0258 15.2702 9.90599C15.2103 9.81613 15.1144 9.76969 14.9945 9.84955Z" fill="#FFEC2D"/>
<path d="M11.1766 9.08707C11.0952 8.96822 10.9904 8.9732 10.9005 9.03311C10.7807 9.11299 10.3199 9.6582 10.3199 9.6582C10.3199 9.6582 11.0003 9.44258 11.1201 9.3627C11.21 9.30279 11.2564 9.20692 11.1766 9.08707Z" fill="#FFEC2D"/>
<path d="M11.9391 5.27057C12.0579 5.18922 12.0529 5.08439 11.993 4.99452C11.9131 4.87471 11.3679 4.41388 11.3679 4.41388C11.3679 4.41388 11.5835 5.09431 11.6634 5.21413C11.7233 5.30399 11.8192 5.35043 11.9391 5.27057Z" fill="#FFEC2D"/>
<path d="M16.1689 7.0252C16.1986 7.16619 16.2974 7.20174 16.4033 7.18078C16.5446 7.15284 17.179 6.82545 17.179 6.82545C17.179 6.82545 16.4678 6.76416 16.3265 6.7921C16.2206 6.81305 16.141 6.88386 16.1689 7.0252Z" fill="#FFEC2D"/>
<path d="M14.0043 10.2595C13.8633 10.2892 13.8278 10.3879 13.8488 10.4939C13.8767 10.6352 14.2041 11.2696 14.2041 11.2696C14.2041 11.2696 14.2654 10.5584 14.2374 10.4171C14.2165 10.3111 14.1457 10.2316 14.0043 10.2595Z" fill="#FFEC2D"/>
<path d="M10.7686 8.09443C10.7389 7.95344 10.6401 7.91789 10.5342 7.93885C10.3929 7.96679 9.75848 8.29418 9.75848 8.29418C9.75848 8.29418 10.4697 8.35547 10.611 8.32753C10.7169 8.30658 10.7965 8.23577 10.7686 8.09443Z" fill="#FFEC2D"/>
<path d="M12.9332 4.86015C13.0742 4.83046 13.1097 4.73169 13.0887 4.62573C13.0608 4.48446 12.7334 3.85003 12.7334 3.85003C12.7334 3.85003 12.6721 4.56125 12.7001 4.70252C12.721 4.80848 12.7918 4.88807 12.9332 4.86015Z" fill="#FFEC2D"/>
<path d="M13.3835 11.7902C13.3205 11.9036 13.2827 12.035 13.2035 12.1376C12.9587 11.9162 12.6059 11.9216 12.2963 11.909C12.0407 11.8946 11.7635 11.8712 11.5655 11.6894C11.3585 11.5184 11.1875 11.2988 10.9571 11.1602C10.7405 11.1137 10.537 11.0196 10.3613 10.8848C9.99765 10.5878 9.78885 10.1468 9.43245 9.84077C9.36585 9.77597 9.28485 9.72377 9.20925 9.66797C9.13725 9.68597 9.16965 9.84077 9.08145 9.76157C9.03285 9.72557 8.91225 9.72377 8.90145 9.77237C9.00945 9.91637 9.11925 10.0784 9.13545 10.262C9.05985 10.2692 8.92845 10.2458 8.89245 10.2728C8.99128 10.4212 9.1156 10.551 9.25965 10.6562C9.19125 10.667 9.05625 10.6616 9.02925 10.6886C9.16402 10.8176 9.3304 10.9089 9.51165 10.9532C9.54765 11.0036 9.45585 11.1008 9.53505 11.144C9.58005 11.162 9.73125 11.1944 9.62685 11.2466C9.55485 11.2934 9.58185 11.4068 9.67365 11.4032C9.73125 11.4338 9.86085 11.4392 9.87165 11.4932C9.81945 11.5436 9.66105 11.6048 9.79605 11.6552C9.92332 11.7273 10.0657 11.7686 10.2119 11.7758C10.1399 11.837 10.0499 11.8712 9.97605 11.9288C10.3091 12.125 10.6781 12.2528 11.0453 12.3788C11.1893 12.4256 11.3387 12.4706 11.4899 12.4994C11.0507 12.4742 10.6259 12.3446 10.2263 12.1664C10.0199 12.0752 9.81105 11.99 9.59985 11.9108C9.69165 11.8622 9.79965 11.8496 9.89685 11.8082C9.69525 11.7686 9.47745 11.7542 9.30285 11.6462C9.32805 11.5958 9.42885 11.594 9.48645 11.5688C9.59445 11.5436 9.65925 11.5148 9.50985 11.504C9.35865 11.4626 9.18585 11.4806 9.05085 11.3906C9.05985 11.3366 9.20025 11.3546 9.25605 11.3312C9.32805 11.3186 9.40725 11.3078 9.46485 11.2592C9.23085 11.1638 8.92485 11.2322 8.74125 11.0252C8.69985 10.946 8.87265 11.009 8.92125 10.9964C9.04725 10.9964 9.18225 11.036 9.30285 10.9856C8.96085 10.8362 8.59545 10.6976 8.33625 10.4204C8.30745 10.3754 8.22105 10.253 8.29125 10.2386C8.49285 10.2656 8.63865 10.4852 8.85645 10.451C8.88525 10.4132 8.73045 10.3502 8.69085 10.2944C8.36516 10.0328 8.08112 9.72329 7.84845 9.37637C7.83405 9.25577 8.01945 9.23777 8.06805 9.32957C8.30925 9.56357 8.52705 9.83357 8.82765 9.99197C8.93565 10.0442 8.76645 9.93077 8.74485 9.88937C8.45899 9.57239 8.21186 9.22253 8.00865 8.84717C7.97265 8.77877 7.91685 8.65457 8.02125 8.61857C8.12385 8.56637 8.22825 8.63657 8.28045 8.72657C8.48385 8.98397 8.63505 9.28997 8.88885 9.50417C8.67285 9.08477 8.44065 8.64017 8.43525 8.15777C8.44065 8.06417 8.44605 7.92377 8.57385 7.92557C8.68185 7.90937 8.66385 8.04617 8.69985 8.11097C8.80425 8.46737 8.84925 8.85257 9.05985 9.16577C9.01485 8.90297 8.94465 8.63117 8.99145 8.36297C9.00225 8.27297 9.09945 8.24777 9.16605 8.30177C9.21825 8.42777 9.22905 8.58797 9.27585 8.72477C9.55638 9.65656 10.147 10.4644 10.9499 11.0144C11.6073 11.4639 12.3743 11.727 13.1693 11.7758C13.2413 11.7818 13.3127 11.786 13.3835 11.7884M15.8387 13.4282C15.7091 13.5074 15.6083 13.367 15.5003 13.3256C15.4211 13.3688 15.4139 13.5092 15.3419 13.5776C15.2555 13.6766 15.1475 13.5488 15.1565 13.4516C15.0521 13.5398 14.9999 13.7396 14.8325 13.7108C14.7515 13.646 14.6921 13.5092 14.6309 13.6658C14.5823 13.7414 14.4509 13.8494 14.3807 13.7342C14.3591 13.6334 14.3087 13.5146 14.2547 13.6748C14.2151 13.79 14.0927 13.8728 13.9775 13.8224C13.9127 13.7702 14.0279 13.5758 13.9469 13.5884C13.8245 13.6712 13.7525 13.871 13.5815 13.8548C13.5149 13.7828 13.6229 13.655 13.5491 13.5722C13.4645 13.682 13.3691 13.844 13.2197 13.8548C13.1477 13.7972 13.2233 13.6298 13.1765 13.6064C13.0253 13.6964 12.8633 13.8602 12.6725 13.8098C12.7463 13.5218 13.0595 13.4228 13.3205 13.4012C13.7723 13.3454 14.2475 13.448 14.6831 13.2842C14.7533 13.241 14.9225 13.1816 14.8631 13.0826C14.8091 13.0034 15.0017 13.034 15.0197 12.9422C15.0089 12.827 15.1097 12.8432 15.2069 12.8342C15.6461 12.8144 16.0799 12.9062 16.5173 12.9224C16.5497 13.1348 16.3139 13.2842 16.1213 13.2194C16.0313 13.2338 15.8963 13.0106 15.9233 13.1726C15.9053 13.259 15.9161 13.3706 15.8387 13.4282ZM12.1055 12.9926C12.2063 13.0844 12.2783 12.9746 12.3737 12.9332C12.6852 12.8112 12.9779 12.6458 13.2431 12.4418C13.4087 12.305 13.5527 12.1268 13.7759 12.0818C14.2115 11.9504 14.6741 11.9666 15.1097 11.8442C15.4427 11.3906 16.0061 11.2268 16.4795 10.9658C16.5857 10.9334 16.6271 10.8452 16.6595 10.7498C16.8395 10.4636 17.0861 10.2116 17.3777 10.0388C17.5152 9.95718 17.6775 9.92779 17.8349 9.95597C17.8138 10.1398 17.7261 10.3095 17.5883 10.433C17.6945 10.4312 17.7863 10.3646 17.8907 10.3682C17.9267 10.559 17.7215 10.658 17.6117 10.7768C17.6729 10.7912 17.9069 10.8092 17.7791 10.8704C17.6171 10.982 17.4317 11.0594 17.2823 11.1908C17.4209 11.216 17.4371 11.2448 17.2967 11.2952C17.2193 11.3456 17.0735 11.3636 17.0591 11.4644C17.1635 11.5292 17.0123 11.5904 16.9529 11.612C16.8413 11.639 16.7225 11.6876 16.8719 11.774C16.8161 11.8586 16.6937 11.8766 16.5947 11.8676C16.6253 11.9648 16.6685 12.0728 16.5443 12.116C16.2655 12.336 15.9318 12.4754 15.5795 12.5192C16.0205 12.5516 16.4759 12.4706 16.8521 12.2312C16.9025 12.1718 17.1635 12.107 17.0177 12.0584C16.9493 12.0296 16.8017 11.9972 16.7909 11.945C16.9961 11.819 17.2535 11.864 17.4731 11.7902C17.4785 11.7182 17.3057 11.738 17.2409 11.7218C17.0879 11.7092 17.0969 11.6696 17.2445 11.6552C17.4317 11.6048 17.6441 11.5958 17.8025 11.4752C17.6747 11.414 17.5127 11.4662 17.3759 11.4176C17.6081 11.3168 17.8817 11.306 18.0905 11.153C18.1859 11.0468 17.9681 11.081 17.9051 11.0828C17.7773 11.1062 17.7179 11.0432 17.8637 10.991C18.1139 10.8056 18.4289 10.6868 18.6053 10.4204C18.6467 10.361 18.7025 10.181 18.5693 10.244C18.3965 10.3034 18.2435 10.4978 18.0437 10.4384C18.4361 10.1342 18.8069 9.79037 19.0751 9.37097C19.0895 9.24857 18.8987 9.23597 18.8501 9.33137C18.5981 9.57257 18.3713 9.85877 18.0491 10.0118C18.3527 9.70806 18.6164 9.36691 18.8339 8.99657C18.8825 8.88857 19.0103 8.75717 18.9419 8.63657C18.8285 8.54297 18.6881 8.62937 18.6305 8.73917C18.4343 8.99477 18.2867 9.29177 18.0365 9.50057C18.2543 9.08117 18.4829 8.63297 18.4865 8.15057C18.4865 8.04977 18.4685 7.90217 18.3317 7.92197C18.2237 7.93997 18.2507 8.10197 18.2057 8.18297C18.1085 8.51417 18.0617 8.87237 17.8637 9.16037C17.9087 8.89217 17.9861 8.61137 17.9267 8.34137C17.8979 8.21897 17.7017 8.27117 17.7287 8.39177C17.4947 9.57797 16.6973 10.6148 15.6587 11.2142C15.1817 11.4842 14.6507 11.657 14.1071 11.7362C13.9631 11.7668 13.8047 11.7488 13.6661 11.7992C13.3277 12.0566 13.1243 12.4904 12.6977 12.6254C12.5051 12.7208 12.2567 12.7406 12.1199 12.917C12.109 12.9406 12.1041 12.9666 12.1055 12.9926ZM13.0361 12.8072C12.9713 12.8096 12.9077 12.8198 12.8453 12.8378C12.7607 12.8504 12.6797 12.8792 12.5969 12.8918L12.5627 12.899L12.5069 12.9044C12.514 12.9345 12.514 12.966 12.5069 12.9962C12.501 13.0098 12.4924 13.022 12.4817 13.0322C12.4709 13.0466 12.4577 13.0574 12.4421 13.0646C12.4274 13.0718 12.4115 13.076 12.3953 13.0772C12.3797 13.0784 12.3635 13.076 12.3467 13.07C12.3311 13.0652 12.3161 13.0562 12.3017 13.043L12.2513 13.052H12.2045L12.1541 13.034L12.1073 13.0106C12.0461 13.0466 11.9777 13.0808 11.9399 13.1438C11.9223 13.1726 11.9124 13.2054 11.9111 13.2392C11.9087 13.2824 11.9171 13.3244 11.9363 13.3652C11.9435 13.376 11.9489 13.3238 11.9687 13.3166C12.0047 13.2878 12.0449 13.268 12.0893 13.2572C12.1253 13.2392 12.1199 13.2572 12.1055 13.286C12.1019 13.3022 12.0821 13.358 12.1091 13.3292C12.2335 13.2827 12.365 13.2577 12.4979 13.2554C12.6887 13.2374 12.8795 13.2284 13.0703 13.2284L13.6103 13.2392C13.6967 13.2428 13.7831 13.2608 13.8677 13.2464C13.8875 13.241 13.9199 13.241 13.9325 13.2284C13.8929 13.2068 13.8479 13.205 13.8065 13.1996H13.4627C13.3673 13.1906 13.2683 13.1888 13.1783 13.1528C13.1531 13.1438 13.1315 13.1204 13.1081 13.1456C13.0738 13.1578 13.0381 13.1657 13.0019 13.169C12.9383 13.1714 12.8771 13.1606 12.8183 13.1366C12.8615 13.0802 12.9077 13.0262 12.9569 12.9746L12.8453 12.9512C12.9101 12.9032 12.9737 12.8552 13.0361 12.8072Z" fill="#FFEC2D"/>
<path d="M12.3791 13.0196C12.403 13.0196 12.4223 13.0003 12.4223 12.9764C12.4223 12.9526 12.403 12.9332 12.3791 12.9332C12.3553 12.9332 12.3359 12.9526 12.3359 12.9764C12.3359 13.0003 12.3553 13.0196 12.3791 13.0196Z" fill="#FFEC2D"/>
<path d="M12.3774 12.9872C12.3873 12.9872 12.3954 12.9791 12.3954 12.9692C12.3954 12.9592 12.3873 12.9512 12.3774 12.9512C12.3674 12.9512 12.3594 12.9592 12.3594 12.9692C12.3594 12.9791 12.3674 12.9872 12.3774 12.9872Z" fill="#FFEC2D" stroke="#FFEC2D" stroke-width="0.024"/>
<path d="M2.65797 1.31399C2.65797 1.31399 2.48517 1.16639 2.42577 1.24019C2.33217 1.35719 2.71737 1.94219 2.71737 2.14739C2.71737 2.48579 2.49057 2.57759 2.21337 2.62439C2.02617 2.65679 1.72197 2.61179 1.72197 2.61179C1.77957 2.53439 1.81737 2.51099 1.91277 2.50559C1.80477 2.45159 1.69677 2.32919 1.69677 2.14019C1.69677 1.85039 1.81557 1.72979 1.81557 1.40219C1.81557 1.22399 1.66797 0.98999 1.66797 0.98999C1.93077 1.01699 2.06037 1.25999 1.98657 1.45439C2.00683 1.45842 2.02776 1.45741 2.04754 1.45145C2.06731 1.44548 2.08532 1.43475 2.09997 1.42019C2.11797 1.47419 2.08917 1.53719 2.04777 1.59119C2.08017 1.60919 2.10537 1.59839 2.15577 1.58759C2.15217 1.64159 2.11977 1.70279 2.03697 1.75859C2.27457 1.69739 2.41857 1.86119 2.41857 2.03399C2.41857 2.16539 2.32857 2.25899 2.23857 2.25899C2.20977 2.25899 2.16657 2.24639 2.14317 2.22839C2.12517 2.26439 2.13597 2.31299 2.15217 2.34899C2.08737 2.33099 2.04417 2.29139 2.07477 2.21039C2.02437 2.20679 1.98537 2.18879 1.95777 2.15639C1.98537 2.12039 2.02437 2.10239 2.07477 2.10239C2.03877 2.02679 2.08017 1.98539 2.13957 1.95119C2.13957 1.95119 2.10177 2.10239 2.19717 2.10239C2.24037 2.10239 2.27997 2.08979 2.27997 2.02499C2.27997 1.96919 2.23137 1.89179 2.11797 1.89719C2.00457 1.90259 1.91457 1.97459 1.91457 2.15459C1.91457 2.32019 2.04957 2.40299 2.22597 2.40659C2.38437 2.41379 2.50497 2.32739 2.50497 2.16359C2.50497 1.94399 2.18997 1.44719 2.18997 1.25279C2.18997 1.10699 2.31957 1.02419 2.44917 1.02419C2.61477 1.02419 2.75517 1.18979 2.75517 1.18979L2.65797 1.31219V1.31399Z" fill="#FFEC2D"/>
<path d="M2.69413 5.25774C2.69413 5.62314 2.36653 5.81034 2.10913 5.81034C1.76352 5.81034 1.57812 5.60334 1.57812 5.33154C1.57812 5.17854 1.60692 5.08134 1.67713 4.93554L2.47272 3.28494C2.50155 3.21551 2.51387 3.14034 2.50872 3.06534C2.50872 2.91774 2.36473 2.79714 2.21533 2.79534C2.07853 2.78994 1.92733 2.92134 1.92733 3.07074C1.92733 3.25254 2.02272 3.33354 2.11993 3.33354C2.23873 3.33354 2.28553 3.28494 2.28553 3.20034C2.28313 3.14394 2.26033 3.11634 2.21713 3.11754C2.11453 3.11754 2.14513 3.25434 2.14513 3.25434C2.13158 3.25184 2.11875 3.24637 2.10756 3.23833C2.09637 3.2303 2.08709 3.21989 2.08038 3.20786C2.07368 3.19582 2.06971 3.18245 2.06877 3.16871C2.06782 3.15496 2.06993 3.14118 2.07493 3.12834C2.0363 3.11995 2.00151 3.09907 1.97592 3.06894C2.00232 3.04134 2.03532 3.02334 2.07493 3.01494C2.05152 2.93574 2.08393 2.89794 2.15233 2.87994C2.1405 2.90713 2.13736 2.9373 2.14333 2.96634C2.25133 2.93394 2.41873 2.98434 2.41873 3.17154C2.41873 3.35874 2.28913 3.51534 2.04613 3.47754C2.10373 3.50454 2.13252 3.56034 2.13972 3.62334C2.09472 3.60534 2.04613 3.60534 2.04613 3.60534C2.07493 3.65394 2.11452 3.69534 2.11272 3.79614C2.06772 3.77454 2.02452 3.73674 1.96872 3.76014C2.05872 3.94014 1.94712 4.18494 1.66272 4.24254C1.76592 4.11894 1.81753 3.99114 1.81753 3.85914C1.81753 3.43614 1.70053 3.36594 1.70053 3.07074C1.70238 3.00228 1.72048 2.93524 1.75334 2.87515C1.7862 2.81506 1.83288 2.76364 1.88953 2.72514V2.73054C1.85469 2.72339 1.82177 2.70894 1.79292 2.68816C1.76407 2.66737 1.73994 2.64072 1.72213 2.60994C1.92264 2.55467 2.13461 2.55655 2.33413 2.61534C2.40086 2.62478 2.46462 2.64909 2.5207 2.68648C2.57678 2.72387 2.62374 2.77337 2.65813 2.83134C2.69406 2.91335 2.71262 3.00191 2.71262 3.09144C2.71262 3.18097 2.69406 3.26954 2.65813 3.35154C2.54473 3.58554 2.01552 4.71234 1.84992 5.06514C1.81392 5.14074 1.79533 5.22114 1.79413 5.30634C1.79413 5.52234 1.99212 5.59794 2.10372 5.59794C2.23873 5.59794 2.37733 5.49534 2.37733 5.36754C2.37733 5.28654 2.33233 5.23614 2.26933 5.23614C2.11633 5.23614 2.12533 5.36574 2.15593 5.44854C2.06053 5.40534 2.00653 5.32974 2.02092 5.25054C1.96186 5.24062 1.90826 5.20999 1.86972 5.16414C1.90572 5.11734 1.95252 5.08134 2.02092 5.07954C1.99033 4.95534 2.07493 4.90314 2.15593 4.87434C2.13073 4.96434 2.11273 5.07054 2.26933 5.07054C2.38273 5.07054 2.47093 5.08854 2.52313 5.16414L2.53572 4.67814C2.54293 4.53234 2.34132 4.53414 2.21172 4.57914C2.26033 4.41174 2.35932 4.31994 2.58973 4.34334C2.55443 4.32977 2.5243 4.30542 2.50362 4.27376C2.48294 4.24209 2.47276 4.20472 2.47453 4.16694C2.47453 4.03014 2.58613 3.87894 2.65813 3.83394L2.69413 5.25594V5.25774Z" fill="#FFEC2D"/>
<path d="M2.69413 6.35224C2.69413 5.98684 2.36653 5.79964 2.10913 5.79964C1.76352 5.79964 1.57812 6.00664 1.57812 6.27844C1.57812 6.43144 1.60692 6.52864 1.67713 6.67444L2.47272 8.32504C2.50155 8.39448 2.51387 8.46965 2.50872 8.54464C2.50872 8.69224 2.36473 8.81284 2.21533 8.81464C2.07853 8.82004 1.92733 8.68864 1.92733 8.53924C1.92733 8.35744 2.02272 8.27644 2.11993 8.27644C2.23873 8.27644 2.28553 8.32504 2.28553 8.40964C2.28313 8.46604 2.26033 8.49364 2.21713 8.49244C2.11453 8.49244 2.14513 8.35564 2.14513 8.35564C2.13158 8.35815 2.11875 8.36362 2.10756 8.37165C2.09637 8.37969 2.08709 8.39009 2.08038 8.40213C2.07368 8.41416 2.06971 8.42753 2.06877 8.44128C2.06782 8.45502 2.06993 8.46881 2.07493 8.48164C2.0363 8.49004 2.00151 8.51091 1.97592 8.54104C2.00232 8.56864 2.03532 8.58664 2.07493 8.59504C2.05152 8.67424 2.08393 8.71204 2.15233 8.73004C2.1405 8.70286 2.13736 8.67268 2.14333 8.64364C2.25133 8.67604 2.41873 8.62564 2.41873 8.43844C2.41873 8.25124 2.28913 8.09464 2.04613 8.13244C2.10373 8.10544 2.13252 8.04964 2.13972 7.98664C2.09472 8.00464 2.04613 8.00464 2.04613 8.00464C2.07493 7.95604 2.11452 7.91464 2.11272 7.81384C2.06772 7.83544 2.02452 7.87324 1.96872 7.84984C2.05872 7.66984 1.94712 7.42504 1.66272 7.36744C1.76592 7.49104 1.81753 7.61884 1.81753 7.75084C1.81753 8.17384 1.70053 8.24404 1.70053 8.53924C1.70238 8.60771 1.72048 8.67475 1.75334 8.73484C1.7862 8.79493 1.83288 8.84635 1.88953 8.88484V8.87944C1.85469 8.8866 1.82177 8.90104 1.79292 8.92183C1.76407 8.94261 1.73994 8.96927 1.72213 9.00004C1.92264 9.05531 2.13461 9.05344 2.33413 8.99464C2.40086 8.9852 2.46462 8.96089 2.5207 8.92351C2.57678 8.88612 2.62374 8.83661 2.65813 8.77864C2.69406 8.69664 2.71262 8.60808 2.71262 8.51854C2.71262 8.42901 2.69406 8.34045 2.65813 8.25844C2.54473 8.02444 2.01552 6.89764 1.84992 6.54484C1.81392 6.46924 1.79533 6.38884 1.79413 6.30364C1.79413 6.08764 1.99212 6.01204 2.10372 6.01204C2.23873 6.01204 2.37733 6.11464 2.37733 6.24244C2.37733 6.32344 2.33233 6.37384 2.26933 6.37384C2.11633 6.37384 2.12533 6.24424 2.15593 6.16144C2.06053 6.20464 2.00653 6.28024 2.02092 6.35944C1.96186 6.36936 1.90826 6.39999 1.86972 6.44584C1.90572 6.49264 1.95252 6.52864 2.02092 6.53044C1.99033 6.65464 2.07493 6.70684 2.15593 6.73564C2.13073 6.64564 2.11273 6.53944 2.26933 6.53944C2.38273 6.53944 2.47093 6.52144 2.52313 6.44584L2.53572 6.93184C2.54293 7.07764 2.34132 7.07584 2.21172 7.03084C2.26033 7.19824 2.35932 7.29004 2.58973 7.26664C2.55443 7.28022 2.5243 7.30457 2.50362 7.33623C2.48294 7.36789 2.47276 7.40527 2.47453 7.44304C2.47453 7.57984 2.58613 7.73104 2.65813 7.77604L2.69413 6.35404V6.35224Z" fill="#FFEC2D"/>
<path d="M2.65844 1.31399C2.65844 1.31399 2.83124 1.16639 2.89064 1.24019C2.98424 1.35719 2.59904 1.94219 2.59904 2.14739C2.59904 2.48579 2.82584 2.57759 3.10304 2.62439C3.29024 2.65679 3.59444 2.61179 3.59444 2.61179C3.53684 2.53439 3.49904 2.51099 3.40364 2.50559C3.51164 2.45159 3.61964 2.32919 3.61964 2.14019C3.61964 1.85039 3.50084 1.72979 3.50084 1.40219C3.50084 1.22399 3.64844 0.98999 3.64844 0.98999C3.38564 1.01699 3.25604 1.25999 3.32984 1.45439C3.30958 1.45842 3.28864 1.45741 3.26887 1.45145C3.24909 1.44548 3.23109 1.43475 3.21644 1.42019C3.19844 1.47419 3.22724 1.53719 3.26864 1.59119C3.23624 1.60919 3.21104 1.59839 3.16064 1.58759C3.16424 1.64159 3.19664 1.70279 3.27944 1.75859C3.04184 1.69739 2.89784 1.86119 2.89784 2.03399C2.89784 2.16539 2.98784 2.25899 3.07784 2.25899C3.10664 2.25899 3.14984 2.24639 3.17324 2.22839C3.19124 2.26439 3.18044 2.31299 3.16424 2.34899C3.22904 2.33099 3.27224 2.29139 3.24164 2.21039C3.29204 2.20679 3.33104 2.18879 3.35864 2.15639C3.33104 2.12039 3.29204 2.10239 3.24164 2.10239C3.27764 2.02679 3.23624 1.98539 3.17684 1.95119C3.17684 1.95119 3.21464 2.10239 3.11924 2.10239C3.07604 2.10239 3.03644 2.08979 3.03644 2.02499C3.03644 1.96919 3.08504 1.89179 3.19844 1.89719C3.31184 1.90259 3.40184 1.97459 3.40184 2.15459C3.40184 2.32019 3.26684 2.40299 3.09044 2.40659C2.93204 2.41379 2.81144 2.32739 2.81144 2.16359C2.81144 1.94399 3.12644 1.44719 3.12644 1.25279C3.12644 1.10699 2.99684 1.02419 2.86724 1.02419C2.70164 1.02419 2.56124 1.18979 2.56124 1.18979L2.65844 1.31219V1.31399Z" fill="#FFEC2D"/>
<path d="M2.62228 5.25774C2.62228 5.62314 2.94988 5.81034 3.20728 5.81034C3.55288 5.81034 3.73828 5.60334 3.73828 5.33154C3.73828 5.17854 3.70948 5.08134 3.63928 4.93554L2.84368 3.28494C2.81486 3.21551 2.80254 3.14034 2.80768 3.06534C2.80768 2.91774 2.95168 2.79714 3.10108 2.79534C3.23788 2.78994 3.38908 2.92134 3.38908 3.07074C3.38908 3.25254 3.29368 3.33354 3.19648 3.33354C3.07768 3.33354 3.03088 3.28494 3.03088 3.20034C3.03328 3.14394 3.05608 3.11634 3.09928 3.11754C3.20188 3.11754 3.17128 3.25434 3.17128 3.25434C3.18483 3.25184 3.19766 3.24637 3.20885 3.23833C3.22004 3.2303 3.22932 3.21989 3.23603 3.20786C3.24273 3.19582 3.2467 3.18245 3.24764 3.16871C3.24858 3.15496 3.24648 3.14118 3.24148 3.12834C3.28011 3.11995 3.3149 3.09907 3.34048 3.06894C3.31408 3.04134 3.28108 3.02334 3.24148 3.01494C3.26488 2.93574 3.23248 2.89794 3.16408 2.87994C3.1759 2.90713 3.17905 2.9373 3.17308 2.96634C3.06508 2.93394 2.89768 2.98434 2.89768 3.17154C2.89768 3.35874 3.02728 3.51534 3.27028 3.47754C3.21268 3.50454 3.18388 3.56034 3.17668 3.62334C3.22168 3.60534 3.27028 3.60534 3.27028 3.60534C3.24148 3.65394 3.20188 3.69534 3.20368 3.79614C3.24868 3.77454 3.29188 3.73674 3.34768 3.76014C3.25768 3.94014 3.36928 4.18494 3.65368 4.24254C3.55048 4.11894 3.49888 3.99114 3.49888 3.85914C3.49888 3.43614 3.61588 3.36594 3.61588 3.07074C3.61403 3.00228 3.59593 2.93524 3.56306 2.87515C3.5302 2.81506 3.48352 2.76364 3.42688 2.72514V2.73054C3.46171 2.72339 3.49464 2.70894 3.52349 2.68816C3.55234 2.66737 3.57647 2.64072 3.59428 2.60994C3.39376 2.55467 3.18179 2.55655 2.98228 2.61534C2.91555 2.62478 2.85179 2.64909 2.79571 2.68648C2.73963 2.72387 2.69266 2.77337 2.65828 2.83134C2.62234 2.91335 2.60379 3.00191 2.60379 3.09144C2.60379 3.18097 2.62234 3.26954 2.65828 3.35154C2.77168 3.58554 3.30088 4.71234 3.46648 5.06514C3.50248 5.14074 3.52108 5.22114 3.52228 5.30634C3.52228 5.52234 3.32428 5.59794 3.21268 5.59794C3.07768 5.59794 2.93908 5.49534 2.93908 5.36754C2.93908 5.28654 2.98408 5.23614 3.04708 5.23614C3.20008 5.23614 3.19108 5.36574 3.16048 5.44854C3.25588 5.40534 3.30988 5.32974 3.29548 5.25054C3.35455 5.24062 3.40815 5.20999 3.44668 5.16414C3.41068 5.11734 3.36388 5.08134 3.29548 5.07954C3.32608 4.95534 3.24148 4.90314 3.16048 4.87434C3.18568 4.96434 3.20368 5.07054 3.04708 5.07054C2.93368 5.07054 2.84548 5.08854 2.79328 5.16414L2.78068 4.67814C2.77348 4.53234 2.97508 4.53414 3.10468 4.57914C3.05608 4.41174 2.95708 4.31994 2.72668 4.34334C2.76198 4.32977 2.79211 4.30542 2.81279 4.27376C2.83346 4.24209 2.84364 4.20472 2.84188 4.16694C2.84188 4.03014 2.73028 3.87894 2.65828 3.83394L2.62228 5.25594V5.25774Z" fill="#FFEC2D"/>
<path d="M2.62228 6.35224C2.62228 5.98684 2.94988 5.79964 3.20728 5.79964C3.55288 5.79964 3.73828 6.00664 3.73828 6.27844C3.73828 6.43144 3.70948 6.52864 3.63928 6.67444L2.84368 8.32504C2.81486 8.39448 2.80254 8.46965 2.80768 8.54464C2.80768 8.69224 2.95168 8.81284 3.10108 8.81464C3.23788 8.82004 3.38908 8.68864 3.38908 8.53924C3.38908 8.35744 3.29368 8.27644 3.19648 8.27644C3.07768 8.27644 3.03088 8.32504 3.03088 8.40964C3.03328 8.46604 3.05608 8.49364 3.09928 8.49244C3.20188 8.49244 3.17128 8.35564 3.17128 8.35564C3.18483 8.35815 3.19766 8.36362 3.20885 8.37165C3.22004 8.37969 3.22932 8.39009 3.23603 8.40213C3.24273 8.41416 3.2467 8.42753 3.24764 8.44128C3.24858 8.45502 3.24648 8.46881 3.24148 8.48164C3.28011 8.49004 3.3149 8.51091 3.34048 8.54104C3.31408 8.56864 3.28108 8.58664 3.24148 8.59504C3.26488 8.67424 3.23248 8.71204 3.16408 8.73004C3.1759 8.70286 3.17905 8.67268 3.17308 8.64364C3.06508 8.67604 2.89768 8.62564 2.89768 8.43844C2.89768 8.25124 3.02728 8.09464 3.27028 8.13244C3.21268 8.10544 3.18388 8.04964 3.17668 7.98664C3.22168 8.00464 3.27028 8.00464 3.27028 8.00464C3.24148 7.95604 3.20188 7.91464 3.20368 7.81384C3.24868 7.83544 3.29188 7.87324 3.34768 7.84984C3.25768 7.66984 3.36928 7.42504 3.65368 7.36744C3.55048 7.49104 3.49888 7.61884 3.49888 7.75084C3.49888 8.17384 3.61588 8.24404 3.61588 8.53924C3.61403 8.60771 3.59593 8.67475 3.56306 8.73484C3.5302 8.79493 3.48352 8.84635 3.42688 8.88484V8.87944C3.46171 8.8866 3.49464 8.90104 3.52349 8.92183C3.55234 8.94261 3.57647 8.96927 3.59428 9.00004C3.39376 9.05531 3.18179 9.05344 2.98228 8.99464C2.91555 8.9852 2.85179 8.96089 2.79571 8.92351C2.73963 8.88612 2.69266 8.83661 2.65828 8.77864C2.62234 8.69664 2.60379 8.60808 2.60379 8.51854C2.60379 8.42901 2.62234 8.34045 2.65828 8.25844C2.77168 8.02444 3.30088 6.89764 3.46648 6.54484C3.50248 6.46924 3.52108 6.38884 3.52228 6.30364C3.52228 6.08764 3.32428 6.01204 3.21268 6.01204C3.07768 6.01204 2.93908 6.11464 2.93908 6.24244C2.93908 6.32344 2.98408 6.37384 3.04708 6.37384C3.20008 6.37384 3.19108 6.24424 3.16048 6.16144C3.25588 6.20464 3.30988 6.28024 3.29548 6.35944C3.35455 6.36936 3.40815 6.39999 3.44668 6.44584C3.41068 6.49264 3.36388 6.52864 3.29548 6.53044C3.32608 6.65464 3.24148 6.70684 3.16048 6.73564C3.18568 6.64564 3.20368 6.53944 3.04708 6.53944C2.93368 6.53944 2.84548 6.52144 2.79328 6.44584L2.78068 6.93184C2.77348 7.07764 2.97508 7.07584 3.10468 7.03084C3.05608 7.19824 2.95708 7.29004 2.72668 7.26664C2.76198 7.28022 2.79211 7.30457 2.81279 7.33623C2.83346 7.36789 2.84364 7.40527 2.84188 7.44304C2.84188 7.57984 2.73028 7.73104 2.65828 7.77604L2.62228 6.35404V6.35224Z" fill="#FFEC2D"/>
<path d="M2.65797 16.686C2.65797 16.686 2.48517 16.8336 2.42577 16.7598C2.33217 16.6428 2.71737 16.0578 2.71737 15.8526C2.71737 15.5142 2.49057 15.4224 2.21337 15.3756C2.02617 15.3432 1.72197 15.3882 1.72197 15.3882C1.77957 15.4656 1.81737 15.489 1.91277 15.4944C1.80477 15.5484 1.69677 15.6708 1.69677 15.8598C1.69677 16.1496 1.81557 16.2702 1.81557 16.5978C1.81557 16.776 1.66797 17.01 1.66797 17.01C1.93077 16.983 2.06037 16.74 1.98657 16.5456C2.00683 16.5416 2.02776 16.5426 2.04754 16.5486C2.06731 16.5545 2.08532 16.5653 2.09997 16.5798C2.11797 16.5258 2.08917 16.4628 2.04777 16.4088C2.08017 16.3908 2.10537 16.4016 2.15577 16.4124C2.15217 16.3584 2.11977 16.2972 2.03697 16.2414C2.27457 16.3026 2.41857 16.1388 2.41857 15.966C2.41857 15.8346 2.32857 15.741 2.23857 15.741C2.20977 15.741 2.16657 15.7536 2.14317 15.7716C2.12517 15.7356 2.13597 15.687 2.15217 15.651C2.08737 15.669 2.04417 15.7086 2.07477 15.7896C2.02437 15.7932 1.98537 15.8112 1.95777 15.8436C1.98537 15.8796 2.02437 15.8976 2.07477 15.8976C2.03877 15.9732 2.08017 16.0146 2.13957 16.0488C2.13957 16.0488 2.10177 15.8976 2.19717 15.8976C2.24037 15.8976 2.27997 15.9102 2.27997 15.975C2.27997 16.0308 2.23137 16.1082 2.11797 16.1028C2.00457 16.0974 1.91457 16.0254 1.91457 15.8454C1.91457 15.6798 2.04957 15.597 2.22597 15.5934C2.38437 15.5862 2.50497 15.6726 2.50497 15.8364C2.50497 16.056 2.18997 16.5528 2.18997 16.7472C2.18997 16.893 2.31957 16.9758 2.44917 16.9758C2.61477 16.9758 2.75517 16.8102 2.75517 16.8102L2.65797 16.6878V16.686Z" fill="#FFEC2D"/>
<path d="M2.69413 12.7423C2.69413 12.3769 2.36653 12.1897 2.10913 12.1897C1.76352 12.1897 1.57812 12.3967 1.57812 12.6685C1.57812 12.8215 1.60692 12.9187 1.67713 13.0645L2.47272 14.7151C2.50155 14.7845 2.51387 14.8597 2.50872 14.9347C2.50872 15.0823 2.36473 15.2029 2.21533 15.2047C2.07853 15.2101 1.92733 15.0787 1.92733 14.9293C1.92733 14.7475 2.02272 14.6665 2.11993 14.6665C2.23873 14.6665 2.28553 14.7151 2.28553 14.7997C2.28313 14.8561 2.26033 14.8837 2.21713 14.8825C2.11453 14.8825 2.14513 14.7457 2.14513 14.7457C2.13158 14.7482 2.11875 14.7536 2.10756 14.7617C2.09637 14.7697 2.08709 14.7801 2.08038 14.7921C2.07368 14.8042 2.06971 14.8175 2.06877 14.8313C2.06782 14.845 2.06993 14.8588 2.07493 14.8717C2.0363 14.8801 2.00151 14.9009 1.97592 14.9311C2.00232 14.9587 2.03532 14.9767 2.07493 14.9851C2.05152 15.0643 2.08393 15.1021 2.15233 15.1201C2.1405 15.0929 2.13736 15.0627 2.14333 15.0337C2.25133 15.0661 2.41873 15.0157 2.41873 14.8285C2.41873 14.6413 2.28913 14.4847 2.04613 14.5225C2.10373 14.4955 2.13252 14.4397 2.13972 14.3767C2.09472 14.3947 2.04613 14.3947 2.04613 14.3947C2.07493 14.3461 2.11452 14.3047 2.11272 14.2039C2.06772 14.2255 2.02452 14.2633 1.96872 14.2399C2.05872 14.0599 1.94712 13.8151 1.66272 13.7575C1.76592 13.8811 1.81753 14.0089 1.81753 14.1409C1.81753 14.5639 1.70053 14.6341 1.70053 14.9293C1.70238 14.9977 1.72048 15.0648 1.75334 15.1249C1.7862 15.1849 1.83288 15.2364 1.88953 15.2749V15.2695C1.85469 15.2766 1.82177 15.2911 1.79292 15.3118C1.76407 15.3326 1.73994 15.3593 1.72213 15.3901C1.92264 15.4453 2.13461 15.4435 2.33413 15.3847C2.40086 15.3752 2.46462 15.3509 2.5207 15.3135C2.57678 15.2761 2.62374 15.2266 2.65813 15.1687C2.69406 15.0867 2.71262 14.9981 2.71262 14.9086C2.71262 14.819 2.69406 14.7305 2.65813 14.6485C2.54473 14.4145 2.01552 13.2877 1.84992 12.9349C1.81392 12.8593 1.79533 12.7789 1.79413 12.6937C1.79413 12.4777 1.99212 12.4021 2.10372 12.4021C2.23873 12.4021 2.37733 12.5047 2.37733 12.6325C2.37733 12.7135 2.33233 12.7639 2.26933 12.7639C2.11633 12.7639 2.12533 12.6343 2.15593 12.5515C2.06053 12.5947 2.00653 12.6703 2.02092 12.7495C1.96186 12.7594 1.90826 12.79 1.86972 12.8359C1.90572 12.8827 1.95252 12.9187 2.02092 12.9205C1.99033 13.0447 2.07493 13.0969 2.15593 13.1257C2.13073 13.0357 2.11273 12.9295 2.26933 12.9295C2.38273 12.9295 2.47093 12.9115 2.52313 12.8359L2.53572 13.3219C2.54293 13.4677 2.34132 13.4659 2.21172 13.4209C2.26033 13.5883 2.35932 13.6801 2.58973 13.6567C2.55443 13.6702 2.5243 13.6946 2.50362 13.7262C2.48294 13.7579 2.47276 13.7953 2.47453 13.8331C2.47453 13.9699 2.58613 14.1211 2.65813 14.1661L2.69413 12.7441V12.7423Z" fill="#FFEC2D"/>
<path d="M2.69413 11.6478C2.69413 12.0132 2.36653 12.2004 2.10913 12.2004C1.76352 12.2004 1.57812 11.9934 1.57812 11.7216C1.57812 11.5686 1.60692 11.4714 1.67713 11.3256L2.47272 9.67496C2.50155 9.60552 2.51387 9.53035 2.50872 9.45536C2.50872 9.30776 2.36473 9.18716 2.21533 9.18536C2.07853 9.17996 1.92733 9.31136 1.92733 9.46076C1.92733 9.64256 2.02272 9.72356 2.11993 9.72356C2.23873 9.72356 2.28553 9.67496 2.28553 9.59036C2.28313 9.53396 2.26033 9.50636 2.21713 9.50756C2.11453 9.50756 2.14513 9.64436 2.14513 9.64436C2.13158 9.64185 2.11875 9.63638 2.10756 9.62835C2.09637 9.62031 2.08709 9.60991 2.08038 9.59787C2.07368 9.58584 2.06971 9.57247 2.06877 9.55872C2.06782 9.54498 2.06993 9.53119 2.07493 9.51836C2.0363 9.50996 2.00151 9.48909 1.97592 9.45896C2.00232 9.43136 2.03532 9.41336 2.07493 9.40496C2.05152 9.32576 2.08393 9.28796 2.15233 9.26996C2.1405 9.29714 2.13736 9.32732 2.14333 9.35636C2.25133 9.32396 2.41873 9.37436 2.41873 9.56156C2.41873 9.74876 2.28913 9.90536 2.04613 9.86756C2.10373 9.89456 2.13252 9.95036 2.13972 10.0134C2.09472 9.99536 2.04613 9.99536 2.04613 9.99536C2.07493 10.044 2.11452 10.0854 2.11272 10.1862C2.06772 10.1646 2.02452 10.1268 1.96872 10.1502C2.05872 10.3302 1.94712 10.575 1.66272 10.6326C1.76592 10.509 1.81753 10.3812 1.81753 10.2492C1.81753 9.82616 1.70053 9.75596 1.70053 9.46076C1.70238 9.39229 1.72048 9.32525 1.75334 9.26516C1.7862 9.20507 1.83288 9.15365 1.88953 9.11516V9.12056C1.85469 9.1134 1.82177 9.09896 1.79292 9.07817C1.76407 9.05739 1.73994 9.03073 1.72213 8.99996C1.92264 8.94469 2.13461 8.94656 2.33413 9.00536C2.40086 9.0148 2.46462 9.03911 2.5207 9.07649C2.57678 9.11388 2.62374 9.16339 2.65813 9.22136C2.69406 9.30336 2.71262 9.39192 2.71262 9.48146C2.71262 9.57099 2.69406 9.65955 2.65813 9.74156C2.54473 9.97556 2.01552 11.1024 1.84992 11.4552C1.81392 11.5308 1.79533 11.6112 1.79413 11.6964C1.79413 11.9124 1.99212 11.988 2.10372 11.988C2.23873 11.988 2.37733 11.8854 2.37733 11.7576C2.37733 11.6766 2.33233 11.6262 2.26933 11.6262C2.11633 11.6262 2.12533 11.7558 2.15593 11.8386C2.06053 11.7954 2.00653 11.7198 2.02092 11.6406C1.96186 11.6306 1.90826 11.6 1.86972 11.5542C1.90572 11.5074 1.95252 11.4714 2.02092 11.4696C1.99033 11.3454 2.07493 11.2932 2.15593 11.2644C2.13073 11.3544 2.11273 11.4606 2.26933 11.4606C2.38273 11.4606 2.47093 11.4786 2.52313 11.5542L2.53572 11.0682C2.54293 10.9224 2.34132 10.9242 2.21172 10.9692C2.26033 10.8018 2.35932 10.71 2.58973 10.7334C2.55443 10.7198 2.5243 10.6954 2.50362 10.6638C2.48294 10.6321 2.47276 10.5947 2.47453 10.557C2.47453 10.4202 2.58613 10.269 2.65813 10.224L2.69413 11.646V11.6478Z" fill="#FFEC2D"/>
<path d="M2.65844 16.686C2.65844 16.686 2.83124 16.8336 2.89064 16.7598C2.98424 16.6428 2.59904 16.0578 2.59904 15.8526C2.59904 15.5142 2.82584 15.4224 3.10304 15.3756C3.29024 15.3432 3.59444 15.3882 3.59444 15.3882C3.53684 15.4656 3.49904 15.489 3.40364 15.4944C3.51164 15.5484 3.61964 15.6708 3.61964 15.8598C3.61964 16.1496 3.50084 16.2702 3.50084 16.5978C3.50084 16.776 3.64844 17.01 3.64844 17.01C3.38564 16.983 3.25604 16.74 3.32984 16.5456C3.30958 16.5416 3.28864 16.5426 3.26887 16.5486C3.24909 16.5545 3.23109 16.5653 3.21644 16.5798C3.19844 16.5258 3.22724 16.4628 3.26864 16.4088C3.23624 16.3908 3.21104 16.4016 3.16064 16.4124C3.16424 16.3584 3.19664 16.2972 3.27944 16.2414C3.04184 16.3026 2.89784 16.1388 2.89784 15.966C2.89784 15.8346 2.98784 15.741 3.07784 15.741C3.10664 15.741 3.14984 15.7536 3.17324 15.7716C3.19124 15.7356 3.18044 15.687 3.16424 15.651C3.22904 15.669 3.27224 15.7086 3.24164 15.7896C3.29204 15.7932 3.33104 15.8112 3.35864 15.8436C3.33104 15.8796 3.29204 15.8976 3.24164 15.8976C3.27764 15.9732 3.23624 16.0146 3.17684 16.0488C3.17684 16.0488 3.21464 15.8976 3.11924 15.8976C3.07604 15.8976 3.03644 15.9102 3.03644 15.975C3.03644 16.0308 3.08504 16.1082 3.19844 16.1028C3.31184 16.0974 3.40184 16.0254 3.40184 15.8454C3.40184 15.6798 3.26684 15.597 3.09044 15.5934C2.93204 15.5862 2.81144 15.6726 2.81144 15.8364C2.81144 16.056 3.12644 16.5528 3.12644 16.7472C3.12644 16.893 2.99684 16.9758 2.86724 16.9758C2.70164 16.9758 2.56124 16.8102 2.56124 16.8102L2.65844 16.6878V16.686Z" fill="#FFEC2D"/>
<path d="M2.62228 12.7423C2.62228 12.3769 2.94988 12.1897 3.20728 12.1897C3.55288 12.1897 3.73828 12.3967 3.73828 12.6685C3.73828 12.8215 3.70948 12.9187 3.63928 13.0645L2.84368 14.7151C2.81486 14.7845 2.80254 14.8597 2.80768 14.9347C2.80768 15.0823 2.95168 15.2029 3.10108 15.2047C3.23788 15.2101 3.38908 15.0787 3.38908 14.9293C3.38908 14.7475 3.29368 14.6665 3.19648 14.6665C3.07768 14.6665 3.03088 14.7151 3.03088 14.7997C3.03328 14.8561 3.05608 14.8837 3.09928 14.8825C3.20188 14.8825 3.17128 14.7457 3.17128 14.7457C3.18483 14.7482 3.19766 14.7536 3.20885 14.7617C3.22004 14.7697 3.22932 14.7801 3.23603 14.7921C3.24273 14.8042 3.2467 14.8175 3.24764 14.8313C3.24858 14.845 3.24648 14.8588 3.24148 14.8717C3.28011 14.8801 3.3149 14.9009 3.34048 14.9311C3.31408 14.9587 3.28108 14.9767 3.24148 14.9851C3.26488 15.0643 3.23248 15.1021 3.16408 15.1201C3.1759 15.0929 3.17905 15.0627 3.17308 15.0337C3.06508 15.0661 2.89768 15.0157 2.89768 14.8285C2.89768 14.6413 3.02728 14.4847 3.27028 14.5225C3.21268 14.4955 3.18388 14.4397 3.17668 14.3767C3.22168 14.3947 3.27028 14.3947 3.27028 14.3947C3.24148 14.3461 3.20188 14.3047 3.20368 14.2039C3.24868 14.2255 3.29188 14.2633 3.34768 14.2399C3.25768 14.0599 3.36928 13.8151 3.65368 13.7575C3.55048 13.8811 3.49888 14.0089 3.49888 14.1409C3.49888 14.5639 3.61588 14.6341 3.61588 14.9293C3.61403 14.9977 3.59593 15.0648 3.56306 15.1249C3.5302 15.1849 3.48352 15.2364 3.42688 15.2749V15.2695C3.46171 15.2766 3.49464 15.2911 3.52349 15.3118C3.55234 15.3326 3.57647 15.3593 3.59428 15.3901C3.39376 15.4453 3.18179 15.4435 2.98228 15.3847C2.91555 15.3752 2.85179 15.3509 2.79571 15.3135C2.73963 15.2761 2.69266 15.2266 2.65828 15.1687C2.62234 15.0867 2.60379 14.9981 2.60379 14.9086C2.60379 14.819 2.62234 14.7305 2.65828 14.6485C2.77168 14.4145 3.30088 13.2877 3.46648 12.9349C3.50248 12.8593 3.52108 12.7789 3.52228 12.6937C3.52228 12.4777 3.32428 12.4021 3.21268 12.4021C3.07768 12.4021 2.93908 12.5047 2.93908 12.6325C2.93908 12.7135 2.98408 12.7639 3.04708 12.7639C3.20008 12.7639 3.19108 12.6343 3.16048 12.5515C3.25588 12.5947 3.30988 12.6703 3.29548 12.7495C3.35455 12.7594 3.40815 12.79 3.44668 12.8359C3.41068 12.8827 3.36388 12.9187 3.29548 12.9205C3.32608 13.0447 3.24148 13.0969 3.16048 13.1257C3.18568 13.0357 3.20368 12.9295 3.04708 12.9295C2.93368 12.9295 2.84548 12.9115 2.79328 12.8359L2.78068 13.3219C2.77348 13.4677 2.97508 13.4659 3.10468 13.4209C3.05608 13.5883 2.95708 13.6801 2.72668 13.6567C2.76198 13.6702 2.79211 13.6946 2.81279 13.7262C2.83346 13.7579 2.84364 13.7953 2.84188 13.8331C2.84188 13.9699 2.73028 14.1211 2.65828 14.1661L2.62228 12.7441V12.7423Z" fill="#FFEC2D"/>
<path d="M2.62228 11.6478C2.62228 12.0132 2.94988 12.2004 3.20728 12.2004C3.55288 12.2004 3.73828 11.9934 3.73828 11.7216C3.73828 11.5686 3.70948 11.4714 3.63928 11.3256L2.84368 9.67496C2.81486 9.60552 2.80254 9.53035 2.80768 9.45536C2.80768 9.30776 2.95168 9.18716 3.10108 9.18536C3.23788 9.17996 3.38908 9.31136 3.38908 9.46076C3.38908 9.64256 3.29368 9.72356 3.19648 9.72356C3.07768 9.72356 3.03088 9.67496 3.03088 9.59036C3.03328 9.53396 3.05608 9.50636 3.09928 9.50756C3.20188 9.50756 3.17128 9.64436 3.17128 9.64436C3.18483 9.64185 3.19766 9.63638 3.20885 9.62835C3.22004 9.62031 3.22932 9.60991 3.23603 9.59787C3.24273 9.58584 3.2467 9.57247 3.24764 9.55872C3.24858 9.54498 3.24648 9.53119 3.24148 9.51836C3.28011 9.50996 3.3149 9.48909 3.34048 9.45896C3.31408 9.43136 3.28108 9.41336 3.24148 9.40496C3.26488 9.32576 3.23248 9.28796 3.16408 9.26996C3.1759 9.29714 3.17905 9.32732 3.17308 9.35636C3.06508 9.32396 2.89768 9.37436 2.89768 9.56156C2.89768 9.74876 3.02728 9.90536 3.27028 9.86756C3.21268 9.89456 3.18388 9.95036 3.17668 10.0134C3.22168 9.99536 3.27028 9.99536 3.27028 9.99536C3.24148 10.044 3.20188 10.0854 3.20368 10.1862C3.24868 10.1646 3.29188 10.1268 3.34768 10.1502C3.25768 10.3302 3.36928 10.575 3.65368 10.6326C3.55048 10.509 3.49888 10.3812 3.49888 10.2492C3.49888 9.82616 3.61588 9.75596 3.61588 9.46076C3.61403 9.39229 3.59593 9.32525 3.56306 9.26516C3.5302 9.20507 3.48352 9.15365 3.42688 9.11516V9.12056C3.46171 9.1134 3.49464 9.09896 3.52349 9.07817C3.55234 9.05739 3.57647 9.03073 3.59428 8.99996C3.39376 8.94469 3.18179 8.94656 2.98228 9.00536C2.91555 9.0148 2.85179 9.03911 2.79571 9.07649C2.73963 9.11388 2.69266 9.16339 2.65828 9.22136C2.62234 9.30336 2.60379 9.39192 2.60379 9.48146C2.60379 9.57099 2.62234 9.65955 2.65828 9.74156C2.77168 9.97556 3.30088 11.1024 3.46648 11.4552C3.50248 11.5308 3.52108 11.6112 3.52228 11.6964C3.52228 11.9124 3.32428 11.988 3.21268 11.988C3.07768 11.988 2.93908 11.8854 2.93908 11.7576C2.93908 11.6766 2.98408 11.6262 3.04708 11.6262C3.20008 11.6262 3.19108 11.7558 3.16048 11.8386C3.25588 11.7954 3.30988 11.7198 3.29548 11.6406C3.35455 11.6306 3.40815 11.6 3.44668 11.5542C3.41068 11.5074 3.36388 11.4714 3.29548 11.4696C3.32608 11.3454 3.24148 11.2932 3.16048 11.2644C3.18568 11.3544 3.20368 11.4606 3.04708 11.4606C2.93368 11.4606 2.84548 11.4786 2.79328 11.5542L2.78068 11.0682C2.77348 10.9224 2.97508 10.9242 3.10468 10.9692C3.05608 10.8018 2.95708 10.71 2.72668 10.7334C2.76198 10.7198 2.79211 10.6954 2.81279 10.6638C2.83346 10.6321 2.84364 10.5947 2.84188 10.557C2.84188 10.4202 2.73028 10.269 2.65828 10.224L2.62228 11.646V11.6478Z" fill="#FFEC2D"/>
</g>
<defs>
<clipPath id="clip0_708_13821">
<rect width="24" height="18" fill="white" transform="translate(0.5)"/>
</clipPath>
</defs>
</svg>
