<svg width="17" height="17" viewBox="0 0 17 17" fill="none" xmlns="http://www.w3.org/2000/svg">
<path id="Vector" d="M11.5 16.923L5.5 14.823L1.19625 16.4883C0.901417 16.6024 0.628333 16.5698 0.377 16.3903C0.125667 16.2108 0 15.9653 0 15.6538V2.5385C0 2.341 0.0529168 2.16375 0.15875 2.00675C0.264417 1.84975 0.412833 1.736 0.604 1.6655L5.5 0L11.5 2.1L15.8038 0.43475C16.0986 0.320584 16.3717 0.348418 16.623 0.518251C16.8743 0.688084 17 0.925584 17 1.23075V14.423C17 14.6268 16.9423 14.8057 16.827 14.9595C16.7115 15.1133 16.5551 15.2255 16.3577 15.296L11.5 16.923ZM10.75 15.0885V3.3885L6.25 1.81525V13.5153L10.75 15.0885ZM12.25 15.0885L15.5 14.0115V2.1615L12.25 3.3885V15.0885ZM1.5 14.7615L4.75 13.5153V1.81525L1.5 2.9115V14.7615Z" fill="#FCFCFC"/>
</svg>
