<svg width="78" height="78" viewBox="0 0 78 78" fill="none" xmlns="http://www.w3.org/2000/svg">
<g clip-path="url(#clip0_708_12116)">
<path d="M77.2685 39.0005C77.2685 44.0261 76.2787 49.0026 74.3555 53.6458C72.4323 58.2889 69.6134 62.5077 66.0598 66.0614C62.5062 69.6151 58.2874 72.4341 53.6444 74.3573C49.0014 76.2806 44.0251 77.2705 38.9995 77.2705C28.8499 77.2705 19.116 73.2385 11.9392 66.0614C4.76237 58.8844 0.730469 49.1503 0.730469 39.0005C0.730469 28.8506 4.76237 19.1165 11.9392 11.9395C19.116 4.76248 28.8499 0.730469 38.9995 0.730469C44.0251 0.730469 49.0014 1.72035 53.6444 3.6436C58.2874 5.56685 62.5062 8.38579 66.0598 11.9395C69.6134 15.4932 72.4323 19.712 74.3555 24.3552C76.2787 28.9983 77.2685 33.9748 77.2685 39.0005Z" fill="white"/>
<path d="M39 0C17.4691 0 0.000976562 17.4685 0.000976562 39C0.000976562 60.5315 17.4691 78 39 78C60.5309 78 77.999 60.5315 77.999 39C77.999 17.4685 60.5309 0 39 0ZM39 1.4637C43.9293 1.46225 48.8106 2.43204 53.365 4.31767C57.9194 6.2033 62.0577 8.96782 65.5435 12.4533C69.0292 15.9387 71.794 20.0769 73.6801 24.6312C75.5661 29.1856 76.5363 34.0669 76.5354 38.9963C76.5378 43.9267 75.5686 48.8092 73.6832 53.3648C71.7979 57.9204 69.0332 62.0599 65.5474 65.5465C62.0615 69.0331 57.9227 71.7986 53.3676 73.685C48.8125 75.5713 43.9302 76.5415 39 76.54C34.0701 76.5415 29.1882 75.5714 24.6333 73.6853C20.0784 71.7992 15.9398 69.034 12.4539 65.5478C8.96813 62.0616 6.20343 57.9226 4.31783 53.3674C2.43223 48.8122 1.4627 43.9301 1.46464 39C1.46319 34.0706 2.43295 29.1891 4.31854 24.6346C6.20412 20.0801 8.96857 15.9417 12.4539 12.4559C15.9393 8.97008 20.0773 6.20516 24.6316 4.31908C29.1858 2.433 34.067 1.46273 38.9963 1.4637H39Z" fill="#1A1A1A"/>
<path d="M57.8833 31.3867C53.4334 31.3867 51.107 33.2707 51.107 36.1613C51.107 37.083 51.6784 38.4029 52.6407 39.026C54.3256 40.1173 55.7376 40.2795 57.6732 40.7514C58.7829 41.0243 59.9885 41.3377 59.9885 42.0455C59.9885 42.6354 59.3912 43.0742 57.8133 43.0742C54.6869 43.0742 54.0712 41.4261 54.0712 41.4261L50.0673 42.8972C50.9153 45.5923 55.0629 46.5177 57.8096 46.5177C60.748 46.5177 62.4439 45.891 63.5241 44.8586C64.715 43.7231 64.833 42.6244 64.833 41.581C64.833 40.6593 64.4717 39.4352 62.702 38.4103C61.4116 37.6692 58.8087 37.212 57.6732 36.9724C57.2455 36.8765 55.8703 36.6774 55.8703 35.8663C55.8703 35.2616 56.7294 34.9335 57.8833 34.9335C60.1618 34.9335 60.5268 36.4746 60.5268 36.4746L64.5454 34.9962C63.9186 32.1757 60.6153 31.3867 57.8833 31.3867ZM71.1632 31.4568L66.3445 33.2265V45.9463H71.1669L71.1632 31.4568ZM6.66992 31.7222V45.9426H11.4923V43.2917C13.3364 42.6908 15.1511 42.003 16.9303 41.2307C20.3 39.697 20.4438 37.7761 20.4438 36.1797C20.4438 34.1998 18.9691 31.7222 14.8583 31.7222H11.4923H6.66992ZM21.8227 31.7222V45.9426H34.3578V42.44H26.645V40.556H32.7025V37.0572H26.645V35.2137H34.2214V31.7185L21.8227 31.7222ZM36.4482 31.7222V45.9426H41.2706V43.2917C43.1147 42.6908 44.9294 42.003 46.7086 41.2307C50.0784 39.697 50.2222 37.7761 50.2222 36.1797C50.2222 34.1998 48.7474 31.7222 44.6366 31.7222H41.2706H36.4482ZM11.4923 35.2174H13.9034C14.7145 35.2174 15.3892 35.8774 15.3892 36.7143C15.3892 37.7097 15.0058 38.2407 13.5569 38.8453L11.4923 39.6638V35.2174ZM41.2706 35.2174H43.6818C44.4929 35.2174 45.1675 35.8774 45.1675 36.7143C45.1675 37.7097 44.7878 38.2407 43.3352 38.8453L41.2706 39.6638V35.2174Z" fill="#1A1A1A"/>
<path d="M39.0003 4.07031C32.1862 4.07598 25.5227 6.07443 19.8301 9.81957C14.1375 13.5647 9.6645 18.893 6.96191 25.1483C7.08727 25.1925 13.9005 27.6038 20.7801 27.6038C31.5271 27.6038 44.4125 23.2127 58.297 23.2127C65.3277 23.2127 70.5298 24.9529 71.0607 25.1372C68.355 18.8806 63.8778 13.5522 58.181 9.80888C52.4843 6.06553 45.8168 4.07073 39.0003 4.07031Z" fill="#D7D7D7"/>
<path d="M39.0185 73.9378C45.8327 73.9331 52.4968 71.9356 58.19 68.1911C63.8833 64.4466 68.3571 59.1186 71.0605 52.8635C70.9351 52.8155 64.1182 50.4043 57.2423 50.4043C46.4953 50.4043 33.6099 54.7991 19.7217 54.7991C12.6947 54.7991 7.49259 53.0589 6.95801 52.8745C9.66432 59.1305 14.1417 64.4581 19.8384 68.2007C25.5351 71.9434 32.2023 73.9377 39.0185 73.9378Z" fill="#979797"/>
</g>
<defs>
<clipPath id="clip0_708_12116">
<rect width="78" height="78" fill="white"/>
</clipPath>
</defs>
</svg>
