<svg width="30" height="37" viewBox="0 0 30 37" fill="none" xmlns="http://www.w3.org/2000/svg">
<g id="pin-1">
<path fill-rule="evenodd" clip-rule="evenodd" d="M3.72656 25.2294C6.21094 28.8523 9.96875 32.7758 15 37C20.0312 32.7758 23.7891 28.8523 26.2734 25.2294C28.7578 21.6065 30 18.2533 30 15.17C30 10.545 28.4922 6.86042 25.4766 4.11625C22.4609 1.37208 18.9688 0 15 0C11.0312 0 7.53906 1.37208 4.52344 4.11625C1.50781 6.86042 0 10.545 0 15.17C0 18.2533 1.24219 21.6065 3.72656 25.2294Z" fill="#0061AD"/>
<path d="M20 14.3067C20 17.0313 17.7614 19.24 15 19.24C12.2386 19.24 10 17.0313 10 14.3067C10 11.5821 12.2386 9.37333 15 9.37333C17.7614 9.37333 20 11.5821 20 14.3067Z" fill="#D9D9D9"/>
</g>
</svg>
