<svg width="36" height="36" viewBox="0 0 36 36" fill="none" xmlns="http://www.w3.org/2000/svg">
<rect x="1" y="1" width="34" height="34" stroke="#F0F0F0"/>
<path d="M18 18.0011L17.7606 17.5622L17.5 18.0011H18ZM17.9989 18.0011H18.4989L18.2383 17.5622L17.9989 18.0011ZM7 12.0012L6.76054 11.5622L6.5 11.7044V12.0012H7ZM7 24H6.5V24.2969L6.76059 24.439L7 24ZM18 29.9995L17.7606 30.4384L18 30.569L18.2394 30.4384L18 29.9995ZM29 24L29.2394 24.439L29.5 24.2969V24H29ZM29 12.0012H29.5V11.7044L29.2395 11.5622L29 12.0012ZM18 6L18.2395 5.56107L18 5.43043L17.7605 5.56107L18 6ZM18.2394 18.4401L29.1094 12.5115L28.6306 11.6336L17.7606 17.5622L18.2394 18.4401ZM17.5 18.0011V29.8599H18.5V18.0011H17.5ZM18.4989 30V18.0011H17.4989V30H18.4989ZM18.2383 17.5622L7.36831 11.6336L6.8895 12.5115L17.7595 18.4401L18.2383 17.5622ZM6.5 12.0012V24H7.5V12.0012H6.5ZM6.76059 24.439L17.7606 30.4384L18.2394 29.5605L7.23941 23.5611L6.76059 24.439ZM18.2394 30.4384L29.2394 24.439L28.7606 23.5611L17.7606 29.5605L18.2394 30.4384ZM29.5 24V12.0012H28.5V24H29.5ZM29.2395 11.5622L18.2395 5.56107L17.7605 6.43893L28.7605 12.4401L29.2395 11.5622ZM17.7605 5.56107L6.76054 11.5622L7.23946 12.4401L18.2395 6.43893L17.7605 5.56107Z" fill="#5F737E" fill-opacity="0.5"/>
</svg>
