<svg width="72" height="72" viewBox="0 0 72 72" fill="none" xmlns="http://www.w3.org/2000/svg">
<g id="Y2K Shapes16" clip-path="url(#clip0_708_12156)">
<g id="_6">
<path id="Vector" d="M71.849 32.2884C70.0511 12.7939 52.5093 -1.62334 32.745 0.149413C12.9748 1.91642 -1.64632 19.2136 0.151498 38.7081C0.733316 45.0533 3.0315 51.1059 6.79586 56.2406C6.52823 57.4912 6.44095 58.7993 6.56313 60.136C6.88313 63.6069 8.55295 66.7451 11.27 68.9768C13.673 70.9504 16.6286 72.0003 19.718 72.0003C20.1253 72.0003 20.5326 71.983 20.9399 71.9429C23.1391 71.7478 25.2104 71.0249 27.0082 69.8603C29.9348 70.6061 32.937 70.9905 35.9624 70.9905C37.062 70.9905 38.1617 70.9389 39.2613 70.8414C48.838 69.9865 57.5013 65.5002 63.657 58.2199C69.8126 50.9395 72.7217 41.7258 71.8548 32.2884H71.849ZM20.7013 69.476C17.8504 69.7341 15.0751 68.8793 12.8759 67.0721C10.6766 65.265 9.32677 62.7234 9.06495 59.9123C8.52968 54.1121 12.8817 48.966 18.7639 48.4382C21.6148 48.18 24.39 49.0348 26.5893 50.842C28.7886 52.6492 30.1384 55.1907 30.4002 58.0018C30.6562 60.813 29.7951 63.5496 27.9624 65.7182C26.1297 67.8868 23.5522 69.2178 20.7013 69.476ZM32.7391 56.5848C32.1806 53.59 30.598 50.9051 28.201 48.9373C25.4839 46.7056 22.0511 45.65 18.5311 45.9655C18.0948 46.0057 17.6642 46.063 17.2453 46.1434C15.6802 43.4756 14.7377 40.544 14.4526 37.4288C13.929 31.7548 15.6802 26.2186 19.3806 21.8412C23.081 17.4638 28.2882 14.7732 34.0424 14.2568C39.7966 13.7405 45.4111 15.4673 49.8446 19.1161C54.2839 22.7649 57.0184 27.8995 57.5362 33.5735C58.0599 39.2474 56.3086 44.7779 52.6082 49.1553C48.9079 53.5327 43.7006 56.2234 37.9522 56.7397C36.201 56.8946 34.4497 56.843 32.7391 56.5848ZM61.7079 56.6307C55.9828 63.4061 47.9246 67.5713 39.0228 68.3687C35.7762 68.6613 32.5471 68.4892 29.3937 67.8638C29.5624 67.686 29.7311 67.4967 29.894 67.3073C31.8664 64.9781 32.9311 62.1096 32.9602 59.1148C33.9551 59.2411 34.9617 59.3099 35.9682 59.3099C36.7013 59.3099 37.4402 59.2755 38.1791 59.2124C44.6024 58.6387 50.4148 55.6324 54.5457 50.7445C58.6766 45.8565 60.6315 39.6777 60.0439 33.344C59.462 27.0103 56.4075 21.279 51.4562 17.2057C46.4991 13.1324 40.233 11.2104 33.8097 11.7842C27.3864 12.3579 21.574 15.3698 17.4431 20.252C13.3122 25.14 11.3631 31.3188 11.945 37.6525C12.2475 40.9341 13.1959 44.0207 14.7668 46.8662C11.689 48.094 9.22204 50.4232 7.80823 53.3147C4.91659 48.8742 3.14204 43.7912 2.65332 38.4844C0.989316 20.3553 14.5864 4.26862 32.9719 2.62208C51.3573 0.975549 67.6657 14.383 69.3355 32.5121C70.1442 41.2898 67.4388 49.8552 61.7137 56.6307H61.7079Z" fill="#0061AD"/>
</g>
</g>
<defs>
<clipPath id="clip0_708_12156">
<rect width="72" height="72" fill="white"/>
</clipPath>
</defs>
</svg>
