<svg width="72" height="72" viewBox="0 0 72 72" fill="none" xmlns="http://www.w3.org/2000/svg">
<g id="Y2K Shapes19" clip-path="url(#clip0_708_12181)">
<g id="_9">
<path id="Vector" d="M71.9488 34.0958C71.9089 33.3784 71.852 32.6383 71.7666 31.8812C71.6299 30.6913 71.4364 29.5015 71.1802 28.3401L71.1574 28.2319C71.0777 27.8505 70.9809 27.4463 70.8671 27.0079C70.5312 25.7042 70.1156 24.4005 69.626 23.1253L69.5463 22.9146C69.3186 22.3396 69.0738 21.7532 68.8119 21.1725L68.7037 20.9391C68.6012 20.7114 68.4931 20.4894 68.3906 20.2787V20.0738L68.1857 19.8631C67.531 18.5594 66.7909 17.2842 65.9824 16.0773C65.1911 14.8874 64.3201 13.7317 63.3921 12.65C62.652 11.779 61.8607 10.9421 61.0523 10.1622C60.0332 9.17159 58.9401 8.23224 57.7958 7.3612C56.8679 6.64957 55.9001 5.98918 54.9322 5.39141C53.8562 4.71963 52.729 4.10478 51.5904 3.55824C51.1236 3.33052 50.6454 3.11419 50.1785 2.91493L49.9508 2.81815C48.9887 2.41394 48.0038 2.04959 47.0189 1.73078L46.8595 1.67954C44.0585 0.791423 41.1437 0.250583 38.189 0.0797912C37.466 0.0342468 36.7316 0.0114746 36.0028 0.0114746H35.7865C34.6764 0.0171677 33.5548 0.0740981 32.4561 0.182266C31.9266 0.233504 31.4541 0.290434 31.0157 0.353058C29.3818 0.575087 27.7479 0.922363 26.1539 1.37211L25.9546 1.42335C25.7952 1.4689 25.6472 1.51444 25.4878 1.56568L25.3341 1.61122C25.1234 1.67954 24.9071 1.74785 24.7021 1.81617C9.92299 6.69512 0 20.4324 0 35.9972C0 43.9903 2.56187 51.5564 7.41235 57.8813C10.1393 61.4338 13.521 64.4511 17.3239 66.7625C17.398 66.8194 17.472 66.865 17.5574 66.9048C20.2445 68.5103 23.1309 69.7741 26.1425 70.6281L26.1766 70.6395C26.3816 70.8046 26.6321 70.907 26.9167 70.907C26.9794 70.907 27.0363 70.8956 27.0932 70.8899C27.987 71.1177 28.8922 71.3112 29.7803 71.4649L29.8828 71.482C31.067 71.6813 32.2682 71.8293 33.4637 71.9147H33.5093C34.0217 71.9546 34.5227 71.9773 35.0293 71.9887C35.2741 71.9944 35.5132 72.0001 35.758 72.0001C35.7694 72.0001 35.7808 72.0001 35.7922 72.0001C35.8036 72.0001 35.8093 72.0001 35.8207 72.0001C35.8833 72.0001 35.9402 72.0001 36.0028 72.0001C37.0048 72.0001 38.0125 71.9602 38.9917 71.8748C39.5667 71.8293 40.1474 71.7667 40.7167 71.6927C41.8098 71.5503 42.8971 71.3568 43.956 71.1177C46.6659 70.5085 49.3018 69.5806 51.7954 68.3622C53.0706 67.736 54.3345 67.0244 55.5414 66.2444L56.0822 65.8914C56.7028 65.4645 57.3233 65.0204 57.9325 64.5479L58.0236 64.5877L58.5359 64.0754C59.5208 63.2783 60.4773 62.4301 61.3654 61.5477C62.2592 60.6595 63.1188 59.7145 63.9102 58.741C64.8097 57.6365 65.6466 56.4751 66.3923 55.3024C67.0869 54.215 67.7188 53.0878 68.2767 51.9549L68.3963 51.7044C68.7436 50.987 69.0681 50.264 69.3584 49.5467C69.5406 49.1026 69.7114 48.6586 69.8651 48.2202C70.3547 46.8596 70.7646 45.4705 71.0834 44.0871C71.1916 43.6202 71.2884 43.1534 71.3738 42.7037L71.3965 42.5955C71.6015 41.4853 71.7552 40.3524 71.8577 39.2309V39.174C71.926 38.4453 71.9658 37.7109 71.9886 37.0049C72 36.6747 72.0057 36.3388 72.0057 36.0086C72.0057 35.3881 71.9886 34.7505 71.9545 34.1072L71.9488 34.0958ZM25.4422 4.05923C25.539 4.02507 25.6358 3.99661 25.7326 3.96245V68.0263C23.4668 67.2976 21.2863 66.3298 19.2254 65.14V6.92853C19.2254 6.89437 19.2197 6.86591 19.214 6.83744C21.1611 5.7216 23.239 4.78225 25.4365 4.05923H25.4422ZM2.36831 35.9972C2.36831 29.1827 4.40642 22.7438 7.98735 17.3525V54.6192C4.30395 49.1026 2.36831 42.715 2.36831 35.9972ZM10.3557 57.7504V14.2099C12.2457 11.984 14.4262 10.0028 16.8628 8.32333V63.6427C14.4547 61.9746 12.2628 59.9935 10.3557 57.7504ZM33.5947 69.5464C32.4618 69.4667 31.3118 69.3244 30.1845 69.1308L30.1105 69.1194C29.4445 68.9999 28.7727 68.8632 28.1009 68.6981V3.30775C29.1712 3.05156 30.2529 2.84092 31.3402 2.6929C31.7501 2.63597 32.1942 2.57904 32.6838 2.5335C33.3214 2.47087 33.9647 2.43102 34.608 2.40256V69.6033C34.2835 69.5919 33.959 69.5749 33.6345 69.5521H33.6004L33.5947 69.5464ZM69.6146 36.9309C69.5975 37.6141 69.5577 38.3143 69.4951 39.0089V39.0601C69.3926 40.1304 69.2446 41.2064 69.0453 42.2596L69.0339 42.3336C68.9599 42.7321 68.8745 43.142 68.7777 43.5519C68.4817 44.8442 68.1003 46.1423 67.6448 47.4118C67.4968 47.816 67.3374 48.2316 67.1723 48.6472C66.8706 49.393 66.529 50.1502 66.1589 50.896L66.0564 51.1009C65.5612 52.0915 65.0032 53.0707 64.3941 54.0271C63.6995 55.1259 62.9196 56.2076 62.077 57.238C61.3369 58.1489 60.5342 59.0313 59.703 59.8568C58.9174 60.6368 58.0805 61.3882 57.2095 62.0942L57.0045 62.2593C56.105 62.9766 55.177 63.6484 54.2491 64.2462L54.01 64.3999C52.9567 65.066 51.858 65.6808 50.7478 66.2216C48.4251 67.3603 45.96 68.2256 43.4266 68.7949C42.4417 69.0169 41.4226 69.1991 40.4036 69.3357C39.8741 69.4041 39.3333 69.461 38.7924 69.5065C38.1947 69.5578 37.5855 69.5919 36.9707 69.609V2.38548C37.3293 2.39686 37.688 2.40825 38.041 2.43102C40.8533 2.59612 43.6258 3.11988 46.2902 3.97384L46.4667 4.03077C47.4003 4.3325 48.3283 4.68547 49.2392 5.0726L49.4043 5.14091C49.7914 5.30601 50.1785 5.48819 50.5657 5.67037C51.6303 6.18274 52.6835 6.75774 53.6911 7.38397C54.602 7.94189 55.5015 8.56244 56.3669 9.22283C57.4315 10.0369 58.4562 10.9137 59.407 11.8416C60.1641 12.5703 60.8986 13.356 61.5931 14.1701C62.4584 15.1835 63.2726 16.2594 64.0126 17.3696C64.7471 18.474 65.4245 19.6297 66.0223 20.8196V21.0245L66.2272 21.2352C66.3013 21.3832 66.3696 21.5312 66.4436 21.6792L66.5518 21.9183C66.8079 22.4706 67.047 23.0342 67.2691 23.5864L67.3431 23.7743C67.8327 25.0267 68.2483 26.3077 68.5785 27.5943C68.6696 27.9587 68.7493 28.2889 68.8233 28.602L68.8517 28.7329C69.1022 29.8544 69.2901 31.0044 69.421 32.1487C69.5007 32.8547 69.5577 33.5549 69.5918 34.2153C69.6203 34.8188 69.6374 35.4166 69.6374 35.9972C69.6374 36.3104 69.6374 36.6178 69.626 36.9309H69.6146Z" fill="#0061AD"/>
</g>
</g>
<defs>
<clipPath id="clip0_708_12181">
<rect width="72" height="72" fill="white"/>
</clipPath>
</defs>
</svg>
