<svg width="72" height="72" viewBox="0 0 72 72" fill="none" xmlns="http://www.w3.org/2000/svg">
<g id="Y2K Shapes62" clip-path="url(#clip0_708_12149)">
<g id="_2">
<path id="Vector" d="M70.7953 34.8587H41.7612C41.7612 34.8587 41.7466 34.8441 41.7612 34.8393L68.6191 23.6521C69.2312 23.3947 69.5032 22.666 69.1923 22.0637C68.9154 21.5293 68.2451 21.335 67.6913 21.5633L40.9451 32.7068C40.9451 32.7068 40.9257 32.6971 40.9354 32.6874L61.4152 12.1978C61.8427 11.7703 61.9107 11.0806 61.5269 10.6191C61.0898 10.0993 60.3125 10.075 59.8413 10.5414L39.1283 31.2543C39.1283 31.2543 39.1041 31.2543 39.1089 31.2446L49.888 4.00782C50.1212 3.42005 49.8346 2.75941 49.2468 2.52624C48.659 2.29308 47.9984 2.57968 47.7652 3.16745L37.161 29.9574C37.161 29.9574 37.1416 29.9671 37.1416 29.9574V1.20011C37.1416 0.597757 36.7044 0.058559 36.102 0.00512489C35.4268 -0.0531668 34.8585 0.476316 34.8585 1.14181V30.2342C34.8585 30.2342 34.8439 30.2488 34.839 30.2342L23.647 3.38605C23.4042 2.80313 22.7338 2.52624 22.1557 2.76912C21.5728 3.01201 21.3008 3.68236 21.5388 4.26042L32.7017 31.06C32.7017 31.06 32.692 31.0795 32.6823 31.0698L12.1587 10.5462C11.6875 10.075 10.9103 10.0993 10.4731 10.6239C10.0845 11.0854 10.1574 11.7801 10.5848 12.2027L31.2541 32.8719C31.2541 32.8719 31.2541 32.8962 31.2444 32.8914L4.00758 22.1074C3.4198 21.8742 2.75917 22.1608 2.526 22.7486C2.29283 23.3364 2.57943 23.997 3.16721 24.2302L29.9571 34.8344C29.9571 34.8344 29.9668 34.8539 29.9571 34.8539H1.19986C0.597513 34.8539 0.0583148 35.291 0.00488075 35.8934C-0.053411 36.5686 0.476072 37.137 1.14157 37.137H30.234C30.234 37.137 30.2486 37.1515 30.234 37.1564L3.3858 48.3484C2.80288 48.5913 2.53086 49.2616 2.76888 49.8397C2.95347 50.2769 3.37609 50.5441 3.82299 50.5441C3.96872 50.5441 4.11931 50.5149 4.26018 50.4566L31.0598 39.2937C31.0598 39.2937 31.0792 39.3035 31.0695 39.3132L10.5897 59.793C10.1234 60.2593 10.0942 61.0463 10.58 61.4883C10.7986 61.6875 11.0755 61.7846 11.3523 61.7846C11.6438 61.7846 11.9353 61.6729 12.1587 61.4495L32.8717 40.7365C32.8717 40.7365 32.896 40.7365 32.8911 40.7462L22.112 67.983C21.8789 68.5708 22.1655 69.2314 22.7532 69.4646C22.8892 69.518 23.035 69.5472 23.171 69.5472C23.6276 69.5472 24.0551 69.2751 24.2348 68.8234L34.839 42.0335C34.839 42.0335 34.8585 42.0237 34.8585 42.0335V70.7859C34.8585 71.3882 35.2957 71.9274 35.898 71.9808C36.5732 72.0391 37.1416 71.5096 37.1416 70.8441V41.7517C37.1416 41.7517 37.1561 41.7371 37.161 41.7517L48.3482 68.6096C48.5327 69.0468 48.9554 69.314 49.4023 69.314C49.548 69.314 49.6986 69.2848 49.8395 69.2265C50.4224 68.9837 50.6944 68.3133 50.4564 67.7353L39.2935 40.9356C39.2935 40.9356 39.3032 40.9162 39.3129 40.9259L59.8413 61.4543C60.0648 61.6778 60.3563 61.7895 60.6477 61.7895C60.9246 61.7895 61.2015 61.6875 61.4201 61.4932C61.9058 61.0511 61.8767 60.2593 61.4104 59.7979L40.7459 39.1334C40.7459 39.1334 40.7459 39.1092 40.7557 39.114L67.9925 49.8931C68.1285 49.9466 68.2742 49.9757 68.4102 49.9757C68.8668 49.9757 69.2943 49.7037 69.4741 49.2519C69.7072 48.6641 69.4206 48.0035 68.8328 47.7703L42.0429 37.1661C42.0429 37.1661 42.0332 37.1467 42.0429 37.1467H70.8585C71.524 37.1467 72.0535 36.5783 71.9952 35.9031C71.9417 35.3056 71.4025 34.8636 70.8002 34.8636L70.7953 34.8587Z" fill="#0061AD"/>
</g>
</g>
<defs>
<clipPath id="clip0_708_12149">
<rect width="72" height="72" fill="white"/>
</clipPath>
</defs>
</svg>
