<svg width="72" height="72" viewBox="0 0 72 72" fill="none" xmlns="http://www.w3.org/2000/svg">
<g id="Y2K Shapes21" clip-path="url(#clip0_708_12188)">
<g id="_1">
<path id="Vector" d="M72 35.986C72 16.1448 55.8532 0 36.0028 0C16.1524 0 0 16.1448 0 35.986C0 55.8271 14.6124 70.3821 33.1253 71.854C34.0695 71.9494 35.0305 72.0056 36.0028 72.0056C36.9751 72.0056 37.9361 71.9551 38.8803 71.854C57.3932 70.3821 72.0056 54.8609 72.0056 35.986H72ZM36.8346 69.5788C36.5592 69.5845 36.2782 69.5901 36.0028 69.5901C35.7274 69.5901 35.4464 69.5901 35.171 69.5788C31.2425 69.1631 28.1683 65.8263 28.1683 61.7929C28.1683 57.473 31.6865 53.9621 36.0028 53.9621C40.3191 53.9621 43.8373 57.4787 43.8373 61.7929C43.8373 65.8319 40.7631 69.1631 36.8346 69.5788ZM44.7534 67.0509C45.6807 65.5117 46.2203 63.7141 46.2203 61.7873C46.2203 56.1585 41.6398 51.5746 36.0028 51.5746C30.3658 51.5746 25.7853 56.1529 25.7853 61.7873C25.7853 63.7085 26.3193 65.5117 27.2522 67.0509C22.7561 64.1635 19.7718 59.1246 19.7718 53.3947C19.7718 44.446 27.0555 37.1713 36.0028 37.1713C44.9501 37.1713 52.2339 44.4516 52.2339 53.3947C52.2339 59.1246 49.2495 64.1635 44.7534 67.0509ZM50.5141 65.0286C53.0769 61.8379 54.6168 57.7932 54.6168 53.3947C54.6168 43.1371 46.2652 34.7894 36.0028 34.7894C25.7404 34.7894 17.3888 43.1371 17.3888 53.3947C17.3888 57.7932 18.9287 61.8379 21.4915 65.0286C14.9946 60.456 10.7401 52.9004 10.7401 44.3729C10.7401 30.4527 22.0704 19.1277 35.9972 19.1277C49.924 19.1277 61.2542 30.4527 61.2542 44.3729C61.2542 52.9004 56.9998 60.456 50.5028 65.0286H50.5141ZM57.292 61.9727C61.2542 57.1922 63.6428 51.0578 63.6428 44.3729C63.6428 29.1382 51.2447 16.7459 36.0028 16.7459C20.7609 16.7459 8.36281 29.1438 8.36281 44.3786C8.36281 51.0578 10.7514 57.1922 14.7136 61.9783C7.1882 55.8103 2.38295 46.4514 2.38295 35.986C2.37733 17.4537 17.4619 2.37622 36.0028 2.37622C54.5438 2.37622 69.6227 17.4537 69.6227 35.9803C69.6227 46.4458 64.8118 55.8046 57.292 61.9727Z" fill="#0061AD"/>
</g>
</g>
<defs>
<clipPath id="clip0_708_12188">
<rect width="72" height="72" fill="white"/>
</clipPath>
</defs>
</svg>
