<svg width="72" height="72" viewBox="0 0 72 72" fill="none" xmlns="http://www.w3.org/2000/svg">
<g id="Y2K Shapes15" clip-path="url(#clip0_708_12163)">
<g id="_5">
<path id="Vector" d="M36.8089 0.0116648C16.3219 -0.441562 -0.441806 16.3221 0.0114207 36.8091C0.435963 55.9823 16.0235 71.5699 35.1968 71.9945C55.6895 72.4477 72.4532 55.684 71.9999 35.1913C71.5697 16.018 55.9821 0.43047 36.8089 0.0116648ZM35.9999 2.31796C54.1864 2.31796 69.0454 16.804 69.6592 34.8413H50.7097C50.1188 27.2397 43.745 21.2388 35.9942 21.2388C28.2435 21.2388 21.8753 27.2455 21.2787 34.8413H2.34066C2.95453 16.804 17.8135 2.31796 35.9999 2.31796ZM48.4207 35.1855C48.9026 42.6896 42.6894 48.8971 35.1853 48.4152C28.9835 48.0193 23.9751 43.0109 23.5792 36.8091C23.0973 29.3051 29.3105 23.0976 36.8146 23.5737C43.0164 23.9696 48.0248 28.978 48.4207 35.1798V35.1855ZM35.9999 69.6824C17.8135 69.6824 2.95453 55.1964 2.34066 37.1591H21.2901C21.8811 44.7607 28.2549 50.7616 36.0057 50.7616C43.7564 50.7616 50.1246 44.7549 50.7212 37.1591H69.6707C69.0568 55.1964 54.1921 69.6824 36.0114 69.6824H35.9999Z" fill="#0061AD"/>
</g>
</g>
<defs>
<clipPath id="clip0_708_12163">
<rect width="72" height="72" fill="white"/>
</clipPath>
</defs>
</svg>
