<svg width="72" height="72" viewBox="0 0 72 72" fill="none" xmlns="http://www.w3.org/2000/svg">
<path d="M36 0C16.147 0 0 15.8249 0 35.282C0 54.739 16.147 70.5639 36 70.5639C40.1622 70.5639 44.2274 69.8766 48.1045 68.5187C49.8093 70.6366 52.4549 72.0056 55.414 72.0056C60.5512 72.0056 64.7304 67.9097 64.7304 62.875C64.7304 57.8403 60.5512 53.7444 55.414 53.7444C50.2768 53.7444 46.0976 57.8403 46.0976 62.875C46.0976 64.1658 46.3769 65.3951 46.873 66.5127C43.3836 67.6806 39.7346 68.2729 36 68.2729C17.4412 68.2729 2.33766 53.4705 2.33766 35.282C2.33766 17.0934 17.4355 2.29104 36 2.29104C54.5645 2.29104 69.6623 17.0934 69.6623 35.282C69.6623 35.9134 70.1869 36.4275 70.8312 36.4275C71.4755 36.4275 72 35.9134 72 35.282C72 15.8249 55.853 0 36 0ZM55.414 56.0354C59.2626 56.0354 62.3928 59.1031 62.3928 62.875C62.3928 66.6468 59.2626 69.7145 55.414 69.7145C51.5654 69.7145 48.4352 66.6468 48.4352 62.875C48.4352 59.1031 51.5654 56.0354 55.414 56.0354Z" fill="#0061AD"/>
</svg>
