<svg width="36" height="36" viewBox="0 0 36 36" fill="none" xmlns="http://www.w3.org/2000/svg">
<rect x="1" y="1" width="34" height="34" stroke="#F0F0F0"/>
<path d="M18 6C15.6266 6 13.3066 6.70379 11.3332 8.02236C9.35977 9.34094 7.8217 11.2151 6.91345 13.4078C6.0052 15.6005 5.76756 18.0133 6.23058 20.3411C6.6936 22.6689 7.83649 24.807 9.51472 26.4853C11.193 28.1635 13.3311 29.3064 15.6589 29.7694C17.9867 30.2324 20.3995 29.9948 22.5922 29.0865C24.7849 28.1783 26.6591 26.6402 27.9776 24.6668C29.2962 22.6934 30 20.3734 30 18C30 14.8174 28.7357 11.7652 26.4853 9.51472C24.2348 7.26428 21.1826 6 18 6ZM18 23.44C16.9241 23.44 15.8723 23.1209 14.9777 22.5232C14.0831 21.9254 13.3858 21.0758 12.9741 20.0818C12.5624 19.0878 12.4546 17.994 12.6645 16.9387C12.8744 15.8834 13.3925 14.9141 14.1533 14.1533C14.9141 13.3925 15.8835 12.8744 16.9387 12.6645C17.994 12.4546 19.0878 12.5624 20.0818 12.9741C21.0758 13.3858 21.9254 14.0831 22.5232 14.9777C23.121 15.8723 23.44 16.9241 23.44 18C23.44 19.4428 22.8669 20.8265 21.8467 21.8467C20.8265 22.8669 19.4428 23.44 18 23.44Z" stroke="#5F737E" stroke-opacity="0.5"/>
</svg>
